<svg width="24" height="22" viewBox="0 0 24 22" fill="none" xmlns="http://www.w3.org/2000/svg">
<path fill-rule="evenodd" clip-rule="evenodd" d="M3.60001 21.7478H20.4C21.7512 21.7478 22.7113 21.1586 23.2945 20.3485C23.8321 19.6009 24.0001 18.7405 24.0001 18.1477V10.9477C24.0001 10.6295 23.8736 10.3242 23.6486 10.0992C23.4235 9.87416 23.1183 9.74773 22.8001 9.74773H19.2V3.74771C19.2 2.79293 18.8208 1.87726 18.1456 1.20212C17.4705 0.526991 16.5548 0.147705 15.6 0.147705H3.60001C2.64523 0.147705 1.72955 0.526991 1.05442 1.20212C0.379286 1.87726 0 2.79293 0 3.74771V18.1477C0 18.7393 0.168 19.6009 0.705602 20.3485C1.2888 21.1598 2.24881 21.7478 3.60001 21.7478ZM20.4 12.1477C20.7183 12.1477 21.0235 12.2742 21.2486 12.4992C21.4736 12.7242 21.6 13.0295 21.6 13.3477V18.1477C21.6 18.466 21.4736 18.7712 21.2486 18.9963C21.0235 19.2213 20.7183 19.3477 20.4 19.3477C20.0818 19.3477 19.7766 19.2213 19.5515 18.9963C19.3265 18.7712 19.2 18.466 19.2 18.1477V13.3477C19.2 13.0295 19.3265 12.7242 19.5515 12.4992C19.7766 12.2742 20.0818 12.1477 20.4 12.1477ZM8.40002 8.54772C8.40002 8.22946 8.52645 7.92424 8.75149 7.69919C8.97654 7.47415 9.28176 7.34772 9.60002 7.34772C9.91828 7.34772 10.2235 7.47415 10.4486 7.69919C10.6736 7.92424 10.8 8.22946 10.8 8.54772C10.8 8.86598 10.6736 9.17121 10.4486 9.39625C10.2235 9.6213 9.91828 9.74773 9.60002 9.74773C9.28176 9.74773 8.97654 9.6213 8.75149 9.39625C8.52645 9.17121 8.40002 8.86598 8.40002 8.54772ZM9.60002 4.94772C8.64524 4.94772 7.72956 5.327 7.05443 6.00213C6.3793 6.67727 6.00001 7.59294 6.00001 8.54772C6.00001 9.5025 6.3793 10.4182 7.05443 11.0933C7.72956 11.7684 8.64524 12.1477 9.60002 12.1477C10.5548 12.1477 11.4705 11.7684 12.1456 11.0933C12.8207 10.4182 13.2 9.5025 13.2 8.54772C13.2 7.59294 12.8207 6.67727 12.1456 6.00213C11.4705 5.327 10.5548 4.94772 9.60002 4.94772ZM6.00001 14.5477C5.68175 14.5477 5.37653 14.6742 5.15148 14.8992C4.92644 15.1243 4.80001 15.4295 4.80001 15.7477C4.80001 16.066 4.92644 16.3712 5.15148 16.5963C5.37653 16.8213 5.68175 16.9477 6.00001 16.9477H13.2C13.5183 16.9477 13.8235 16.8213 14.0486 16.5963C14.2736 16.3712 14.4 16.066 14.4 15.7477C14.4 15.4295 14.2736 15.1243 14.0486 14.8992C13.8235 14.6742 13.5183 14.5477 13.2 14.5477H6.00001Z" fill="#052761"/>
</svg>
