<svg width="32" height="32" viewBox="0 0 32 32" fill="none" xmlns="http://www.w3.org/2000/svg">
<path d="M25.4207 7.94992C19.9019 5.52753 14.8077 8.03306 12.4332 11.1873C9.78787 14.6981 9.53593 19.529 11.855 23.2401C12.7641 24.7068 14.0139 25.9323 15.4981 26.8126C16.9847 27.6993 18.6661 28.2078 20.395 28.2935C22.1239 28.3791 23.8474 28.0393 25.4144 27.3039C25.5958 29.2791 24.1181 31.3072 22.1392 31.8236C21.7313 31.9315 21.3115 31.9877 20.8896 31.9912C15.4418 32.0013 9.99362 32.0013 4.54502 31.9912C3.948 31.9966 3.35588 31.8829 2.80325 31.6569C2.25062 31.4309 1.74856 31.0971 1.32638 30.6749C0.904198 30.2527 0.570359 29.7507 0.344364 29.1981C0.118369 28.6454 0.00474777 28.0533 0.0101267 27.4563C0.00508796 19.8183 0.00508796 12.18 0.0101267 4.5412C0.00506901 3.94341 0.119245 3.35061 0.345986 2.79746C0.572728 2.24432 0.907482 1.74192 1.33067 1.31968C1.75385 0.897429 2.25698 0.563806 2.81062 0.338293C3.36427 0.11278 3.95732 -8.36437e-05 4.5551 0.00630102C9.9785 0.000422447 15.4006 0.000422447 20.8215 0.00630102C23.2968 0.00630102 25.209 1.69555 25.4093 4.16329C25.5051 5.40157 25.4207 6.66126 25.4207 7.94992ZM10.2678 4.92666C8.94849 4.92666 7.62959 4.92666 6.31111 4.92666C5.49861 4.92666 4.93175 5.43054 4.92545 6.14605C4.91915 6.86155 5.48601 7.38558 6.29096 7.38558C8.92876 7.38558 11.5661 7.38558 14.2031 7.38558C15.0131 7.38558 15.5888 6.88169 15.5888 6.16367C15.5888 5.44564 15.0156 4.9254 14.1804 4.9254C12.8779 4.92288 11.5737 4.92246 10.2678 4.92414V4.92666ZM7.78243 12.311C8.31906 12.311 8.85695 12.311 9.39358 12.311C9.72356 12.3178 10.0429 12.194 10.2821 11.9666C10.5213 11.7392 10.661 11.4265 10.6709 11.0966C10.6823 10.4139 10.1166 9.85962 9.38477 9.85458C8.32242 9.84702 7.26092 9.84702 6.20026 9.85458C6.03684 9.85006 5.87415 9.87791 5.72154 9.93652C5.56893 9.99514 5.42942 10.0834 5.31105 10.1961C5.19268 10.3089 5.09778 10.4439 5.03182 10.5935C4.96586 10.7431 4.93013 10.9042 4.92671 11.0677C4.91789 11.7605 5.47089 12.3022 6.20907 12.311C6.73311 12.3135 7.25714 12.3085 7.78243 12.3085V12.311ZM6.97875 17.2314C7.26092 17.2314 7.54309 17.2414 7.824 17.2314C8.14941 17.2314 8.46148 17.1021 8.69158 16.872C8.92168 16.6419 9.05094 16.3298 9.05094 16.0044C9.05094 15.679 8.92168 15.3669 8.69158 15.1368C8.46148 14.9067 8.14941 14.7775 7.824 14.7775C7.25966 14.7623 6.69028 14.7611 6.1335 14.7775C5.80809 14.7775 5.49602 14.9067 5.26592 15.1368C5.03582 15.3669 4.90656 15.679 4.90656 16.0044C4.90656 16.3298 5.03582 16.6419 5.26592 16.872C5.49602 17.1021 5.80809 17.2314 6.1335 17.2314C6.41567 17.2389 6.69909 17.2288 6.97875 17.2288V17.2314Z" fill="white"/>
<path d="M26.7284 23.4404C25.6072 24.4998 24.4143 25.1926 23.0375 25.5667C18.1373 26.8995 13.1539 23.3976 12.7546 18.3349C12.6519 17.1368 12.8139 15.9309 13.2291 14.8025C13.6443 13.6741 14.3026 12.6507 15.1573 11.805C16.0121 10.9593 17.0423 10.3119 18.1751 9.90868C19.3078 9.50544 20.5154 9.35623 21.7123 9.47163C27.3481 9.97551 30.7707 16.022 28.3005 21.1288C28.1745 21.3909 28.1833 21.537 28.3975 21.7448C29.4783 22.8017 30.5452 23.875 31.6097 24.9507C31.8004 25.1256 31.9297 25.3573 31.9785 25.6114C32.0273 25.8655 31.9929 26.1286 31.8805 26.3616C31.6714 26.8164 31.199 27.1426 30.7065 27.057C30.3835 27.0002 30.0831 26.8535 29.8398 26.6337C28.8824 25.7255 27.9603 24.7782 27.0307 23.841C26.9214 23.7141 26.8204 23.5803 26.7284 23.4404ZM19.8303 17.7504C19.3264 17.3724 18.8679 17.0134 18.3904 16.6695C18.261 16.5692 18.1128 16.4958 17.9546 16.4536C17.7963 16.4114 17.6313 16.4012 17.4691 16.4238C17.3069 16.4463 17.1508 16.5011 17.0101 16.5848C16.8693 16.6685 16.7467 16.7796 16.6496 16.9114C16.5527 17.0397 16.4824 17.1861 16.4426 17.3418C16.4028 17.4976 16.3944 17.6597 16.4179 17.8188C16.4413 17.9779 16.4961 18.1307 16.5792 18.2683C16.6622 18.406 16.7718 18.5258 16.9015 18.6208C17.617 19.1826 18.3422 19.7318 19.077 20.2685C19.5683 20.6287 20.0734 20.6187 20.576 20.2685C20.8695 20.0619 21.1504 19.8389 21.4376 19.6235C22.6029 18.7417 23.7744 17.8713 24.9346 16.9782C25.1539 16.8173 25.3129 16.5875 25.3862 16.3256C25.4596 16.0636 25.4429 15.7846 25.3389 15.5333C25.1411 15.0433 24.6524 14.7019 24.1233 14.7775C23.824 14.8324 23.5415 14.9561 23.2982 15.139C22.1481 15.9968 21.0094 16.8648 19.8328 17.7504H19.8303Z" fill="white"/>
</svg>
