<svg width="32" height="32" viewBox="0 0 32 32" fill="none" xmlns="http://www.w3.org/2000/svg">
<g clip-path="url(#clip0_1_713)">
<path d="M5.73995 23.8304C4.86593 23.3753 4.67605 22.8982 4.95467 21.9745C4.99379 21.8476 4.99378 21.6406 4.9165 21.5566C4.48712 21.0795 4.39552 20.5595 4.58922 19.967C4.59876 19.9364 4.58922 19.8983 4.58922 19.9126C4.13217 19.6778 3.67608 19.4975 3.27914 19.2294C2.55016 18.738 2.34597 18.1054 2.65321 17.2743C2.82496 16.8106 3.08831 16.3793 3.33639 15.948C3.79058 15.1541 4.29056 14.3831 4.72185 13.5788C5.09016 12.8966 5.21515 12.1475 5.19225 11.3689C5.05772 6.94254 7.02712 3.71553 10.8419 1.58678C15.795 -1.18031 22.311 -0.249995 26.204 3.74702C28.2021 5.79944 29.2526 8.29173 29.4549 11.1323C29.724 14.9022 28.5465 18.1817 26.0199 20.9832C25.8691 21.1511 25.7336 21.3314 25.5905 21.5089C25.3195 21.8505 25.2594 22.2064 25.3997 22.6405C25.7737 23.7855 25.5361 24.8285 24.7203 25.7177C22.3861 28.2761 19.5333 30.3075 16.3522 31.6765C14.9658 32.2777 13.8714 32.0582 12.9172 30.8827C12.2493 30.0621 11.6548 29.1823 11.0499 28.314C10.8906 28.086 10.7293 28.0211 10.4612 28.0421C9.52132 28.1146 8.58337 28.1232 7.66737 27.8331C6.19222 27.3665 5.43652 26.1986 5.6264 24.6596C5.65312 24.3895 5.69796 24.1205 5.73995 23.8304ZM17.2663 23.6749H19.5563C20.4752 23.6605 21.0191 23.1176 21.0219 22.2026C21.0219 21.0709 21.0687 19.9374 21.0076 18.8105C20.9628 17.9851 21.2939 17.4537 21.9227 16.9709C23.603 15.677 24.5657 13.9519 24.7251 11.8346C25.0667 7.29654 21.3855 2.99036 16.0688 3.789C11.4716 4.47982 8.60437 9.40239 10.2732 13.7391C10.7678 15.0739 11.6376 16.2372 12.7779 17.0892C13.2874 17.4708 13.567 17.9288 13.5412 18.6025C13.5012 19.7561 13.5288 20.9116 13.5298 22.0661C13.5298 23.1672 14.0412 23.673 15.1519 23.6749H17.2663Z" fill="white"/>
<path d="M16.6903 18.4212H14.717C14.6789 18.2142 14.6502 18.0061 14.6025 17.802C14.4446 17.1353 14.0482 16.5495 13.4881 16.1551C11.5998 14.7505 10.7677 12.8345 10.9862 10.5255C11.2639 7.5971 13.3564 5.42828 16.2428 4.91875C19.694 4.30808 23.0011 6.6935 23.5164 10.1667C23.8379 12.3326 23.2235 14.1866 21.6424 15.7114C21.5421 15.8146 21.4343 15.9103 21.3199 15.9976C20.3027 16.7295 20.0232 17.1827 19.8514 18.4117H17.8858C17.8792 18.2819 17.8687 18.1655 17.8687 18.05C17.8687 16.157 17.8687 14.2642 17.8687 12.3718C17.8687 11.6905 18.4412 11.3098 19.0614 11.5913C19.1339 11.6247 19.1778 11.7315 19.2236 11.8107C19.4061 12.1491 19.6975 12.416 20.0506 12.5682C20.4037 12.7204 20.7978 12.749 21.1691 12.6494C21.535 12.5524 21.8582 12.3364 22.0878 12.0354C22.3174 11.7344 22.4402 11.3656 22.4371 10.987C22.4339 10.6085 22.3049 10.2418 22.0703 9.94469C21.8357 9.64759 21.5089 9.437 21.1415 9.3461C20.7754 9.24692 20.3864 9.27606 20.0393 9.42865C19.6921 9.58124 19.4076 9.84809 19.2331 10.1848C19.1234 10.39 19.0013 10.4424 18.7875 10.4329C18.2551 10.41 17.7379 10.4768 17.2943 10.8585C16.8467 10.4768 16.3124 10.4043 15.758 10.4348C15.5472 10.4463 15.4517 10.3632 15.3544 10.1848C15.1734 9.85004 14.8856 9.58549 14.5367 9.43332C14.1879 9.28115 13.7982 9.25012 13.4297 9.34518C13.0612 9.44024 12.7351 9.65593 12.5034 9.95785C12.2717 10.2598 12.1477 10.6306 12.1513 11.0111C12.1527 11.383 12.2756 11.7442 12.5012 12.0398C12.7269 12.3353 13.0429 12.5491 13.4012 12.6485C14.1741 12.8546 14.9737 12.5407 15.3449 11.8222C15.571 11.3852 15.9222 11.6094 16.2151 11.5941C16.508 11.5789 16.6521 11.8012 16.7103 12.0712C16.7191 12.1181 16.7226 12.1658 16.7208 12.2134C16.7208 14.2375 16.7208 16.2613 16.7208 18.2848C16.7149 18.3311 16.7046 18.3768 16.6903 18.4212Z" fill="white"/>
<path d="M14.6806 19.5891H19.8493C19.8579 19.6845 19.8741 19.7723 19.8741 19.862C19.8741 20.6254 19.8684 21.3887 19.8741 22.1444C19.8741 22.4096 19.7968 22.5365 19.5106 22.5346C18.0125 22.527 16.5145 22.5289 15.0174 22.5346C14.8008 22.5346 14.6758 22.4602 14.6758 22.2303L14.6806 19.5891Z" fill="white"/>
<path d="M13.8467 10.4415C13.9965 10.4398 14.1411 10.496 14.2505 10.5984C14.3598 10.7008 14.4254 10.8415 14.4335 10.9911C14.4296 11.1417 14.3681 11.2851 14.2615 11.3916C14.155 11.4982 14.0116 11.5597 13.861 11.5636C13.7172 11.561 13.5797 11.5044 13.4757 11.405C13.3718 11.3057 13.309 11.1708 13.2999 11.0273C13.2965 10.9528 13.308 10.8782 13.3337 10.8082C13.3595 10.7381 13.399 10.6739 13.4499 10.6193C13.5009 10.5647 13.5622 10.5209 13.6303 10.4903C13.6985 10.4598 13.772 10.4432 13.8467 10.4415Z" fill="white"/>
<path d="M21.2913 10.9949C21.285 11.1449 21.2214 11.2867 21.1137 11.3913C21.0059 11.4958 20.8622 11.5551 20.7121 11.5569C20.5625 11.5522 20.4206 11.489 20.317 11.3809C20.2133 11.2728 20.1562 11.1284 20.1577 10.9787C20.1631 10.8349 20.2236 10.6986 20.3266 10.5981C20.4296 10.4976 20.5673 10.4405 20.7112 10.4386C20.8611 10.4383 21.0052 10.496 21.1134 10.5998C21.2216 10.7035 21.2854 10.8451 21.2913 10.9949Z" fill="white"/>
</g>
<defs>
<clipPath id="clip0_1_713">
<rect width="26.9753" height="32" fill="white" transform="translate(2.51221)"/>
</clipPath>
</defs>
</svg>
