<svg width="32" height="32" viewBox="0 0 32 32" fill="none" xmlns="http://www.w3.org/2000/svg">
<g clip-path="url(#clip0_1_703)">
<path d="M14.2602 0H16.0143C16.3225 0.0417646 16.6316 0.0835256 16.939 0.126961C19.1876 0.466089 21.3092 1.17191 23.0901 2.61613C26.4671 5.35338 27.8437 8.9752 27.6223 13.2669C27.5596 14.2218 27.5507 15.1794 27.5956 16.1353C27.6574 17.1427 28.1494 17.9955 28.7993 18.759C29.7181 19.8332 29.5744 21.2782 28.4777 22.1561C28.2087 22.3716 27.9256 22.5679 27.6674 22.7934C27.5618 22.8862 27.4857 23.0079 27.4486 23.1434C27.2949 23.8116 27.1721 24.4882 27.0176 25.1573C26.5857 27.03 25.4456 28.2479 23.5595 28.6354C22.8077 28.7916 22.0058 28.7357 21.2265 28.749C20.986 28.749 20.8832 28.8326 20.8089 29.0531C20.595 29.6762 20.5583 30.3144 20.5767 30.9634C20.5942 31.6834 20.0755 32.1128 19.3805 31.9733L14.2685 30.95C11.9019 30.475 9.53523 30 7.16857 29.525C6.76846 29.4415 6.48864 29.2185 6.41681 28.8326C6.38073 28.5884 6.41133 28.3391 6.50535 28.1109C7.09841 26.5998 7.31224 25.0579 6.95223 23.4592C6.66656 22.1895 5.9858 21.1362 5.21232 20.1096C2.98961 17.1577 2.12175 13.8174 2.87351 10.2056C3.95939 4.95912 7.22203 1.67893 12.3958 0.316573C12.9981 0.156198 13.6354 0.102741 14.2602 0ZM16.0185 20.5273C17.6276 20.5264 19.2004 20.0486 20.538 19.1542C21.8756 18.2597 22.9181 16.9888 23.5336 15.5021C24.1491 14.0153 24.3101 12.3794 23.9961 10.8012C23.6822 9.22303 22.9074 7.77332 21.7698 6.63532C20.6321 5.49732 19.1827 4.72211 17.6046 4.40768C16.0264 4.09325 14.3905 4.25371 12.9036 4.86877C11.4167 5.48383 10.1454 6.52589 9.25057 7.86325C8.35571 9.2006 7.87739 10.7732 7.87607 12.3824C7.87442 13.4522 8.08388 14.5119 8.49246 15.5007C8.90104 16.4894 9.50071 17.3878 10.2571 18.1445C11.0135 18.9011 11.9117 19.501 12.9004 19.9099C13.889 20.3188 14.9486 20.5286 16.0185 20.5273Z" fill="white"/>
<path d="M16.0236 18.6521C14.7838 18.6554 13.571 18.2908 12.5386 17.6044C11.5062 16.918 10.7006 15.9408 10.2239 14.7964C9.74715 13.6519 9.6207 12.3918 9.86053 11.1755C10.1004 9.95914 10.6957 8.84132 11.5712 7.96351C12.4466 7.08571 13.5629 6.4874 14.7785 6.24432C15.9942 6.00123 17.2547 6.12432 18.4004 6.59798C19.5461 7.07165 20.5255 7.87459 21.2146 8.90517C21.9037 9.93575 22.2716 11.1476 22.2716 12.3874C22.2733 14.0465 21.6162 15.6385 20.4445 16.8132C19.2729 17.988 17.6827 18.6494 16.0236 18.6521ZM16.0236 16.0627C17.5889 16.0576 18.9162 14.778 18.9529 13.2377C18.968 12.6396 18.6188 12.2153 18.0834 12.1869C17.5229 12.1568 17.142 12.5377 17.0719 13.1458C17.0455 13.3705 16.9662 13.5858 16.8405 13.774C16.5899 14.1398 16.1246 14.2643 15.7003 14.134C15.4898 14.0693 15.3046 13.941 15.17 13.7668C15.0353 13.5925 14.958 13.3808 14.9486 13.1609C14.9018 12.5402 14.5209 12.1643 13.9612 12.1861C13.4267 12.2078 13.0625 12.6338 13.075 13.2227C13.1059 14.7746 14.4457 16.066 16.0202 16.061L16.0236 16.0627Z" fill="white"/>
</g>
<defs>
<clipPath id="clip0_1_703">
<rect width="26.7986" height="32" fill="white" transform="translate(2.60059)"/>
</clipPath>
</defs>
</svg>
