<svg width="24" height="24" viewBox="0 0 24 24" fill="none" xmlns="http://www.w3.org/2000/svg">
<g clip-path="url(#clip0_1_765)">
<path fill-rule="evenodd" clip-rule="evenodd" d="M3.60001 22.7478H20.4C21.7512 22.7478 22.7113 22.1586 23.2945 21.3486C23.8321 20.601 24.0001 19.7406 24.0001 19.1478V11.9478C24.0001 11.6296 23.8736 11.3243 23.6486 11.0993C23.4235 10.8742 23.1183 10.7478 22.8001 10.7478H19.2V4.7478C19.2 3.79302 18.8208 2.87735 18.1456 2.20221C17.4705 1.52708 16.5548 1.1478 15.6 1.1478H3.60001C2.64523 1.1478 1.72955 1.52708 1.05442 2.20221C0.379286 2.87735 0 3.79302 0 4.7478V19.1478C0 19.7394 0.168 20.601 0.705602 21.3486C1.2888 22.1598 2.24881 22.7478 3.60001 22.7478ZM20.4 13.1478C20.7183 13.1478 21.0235 13.2743 21.2486 13.4993C21.4736 13.7243 21.6 14.0296 21.6 14.3478V19.1478C21.6 19.4661 21.4736 19.7713 21.2486 19.9964C21.0235 20.2214 20.7183 20.3478 20.4 20.3478C20.0818 20.3478 19.7766 20.2214 19.5515 19.9964C19.3265 19.7713 19.2 19.4661 19.2 19.1478V14.3478C19.2 14.0296 19.3265 13.7243 19.5515 13.4993C19.7766 13.2743 20.0818 13.1478 20.4 13.1478ZM8.40002 9.54781C8.40002 9.22955 8.52645 8.92433 8.75149 8.69929C8.97654 8.47424 9.28176 8.34781 9.60002 8.34781C9.91828 8.34781 10.2235 8.47424 10.4486 8.69929C10.6736 8.92433 10.8 9.22955 10.8 9.54781C10.8 9.86608 10.6736 10.1713 10.4486 10.3963C10.2235 10.6214 9.91828 10.7478 9.60002 10.7478C9.28176 10.7478 8.97654 10.6214 8.75149 10.3963C8.52645 10.1713 8.40002 9.86608 8.40002 9.54781ZM9.60002 5.94781C8.64524 5.94781 7.72956 6.32709 7.05443 7.00222C6.3793 7.67736 6.00001 8.59303 6.00001 9.54781C6.00001 10.5026 6.3793 11.4183 7.05443 12.0934C7.72956 12.7685 8.64524 13.1478 9.60002 13.1478C10.5548 13.1478 11.4705 12.7685 12.1456 12.0934C12.8207 11.4183 13.2 10.5026 13.2 9.54781C13.2 8.59303 12.8207 7.67736 12.1456 7.00222C11.4705 6.32709 10.5548 5.94781 9.60002 5.94781ZM6.00001 15.5478C5.68175 15.5478 5.37653 15.6743 5.15148 15.8993C4.92644 16.1243 4.80001 16.4296 4.80001 16.7478C4.80001 17.0661 4.92644 17.3713 5.15148 17.5964C5.37653 17.8214 5.68175 17.9478 6.00001 17.9478H13.2C13.5183 17.9478 13.8235 17.8214 14.0486 17.5964C14.2736 17.3713 14.4 17.0661 14.4 16.7478C14.4 16.4296 14.2736 16.1243 14.0486 15.8993C13.8235 15.6743 13.5183 15.5478 13.2 15.5478H6.00001Z" fill="white"/>
</g>
<defs>
<clipPath id="clip0_1_765">
<rect width="24" height="24" fill="white"/>
</clipPath>
</defs>
</svg>
