<svg width="32" height="32" viewBox="0 0 32 32" fill="none" xmlns="http://www.w3.org/2000/svg">
<g clip-path="url(#clip0_1_673)">
<path d="M0 22.2467C0.19868 21.7283 0.325562 21.1615 0.609391 20.699C1.33816 19.4978 2.43842 18.84 3.85589 18.8049C5.0822 18.774 6.31184 18.7774 7.53815 18.8099C8.0048 18.8216 8.46727 18.9577 9.00321 19.0495C8.89218 19.1897 8.85211 19.2457 8.80703 19.2958C7.66421 20.563 7.09153 22.0506 7.07651 23.756C7.06816 24.6301 7.07651 25.5041 7.07651 26.3781V26.7329C6.94628 26.7387 6.84527 26.7471 6.74259 26.7471C4.75495 26.7471 2.76733 26.7421 0.780527 26.7538C0.414889 26.7538 0.15861 26.6352 0 26.3088V22.2467Z" fill="white"/>
<path d="M16.8033 18.2347C19.4679 17.7864 21.923 18.8558 23.1477 20.9853C23.6157 21.7783 23.8657 22.6809 23.8723 23.6016C23.879 25.1743 23.879 26.7468 23.8723 28.319C23.8723 28.8958 23.5384 29.2372 22.9632 29.2372C22.1209 29.2431 21.2786 29.2372 20.4062 29.2372C20.4004 29.1053 20.392 28.9935 20.3912 28.8825C20.3912 28.0811 20.3912 27.2788 20.3912 26.4774C20.3912 26.0642 20.1959 25.8438 19.8636 25.853C19.5314 25.8622 19.3678 26.0801 19.3627 26.4774C19.3627 27.3815 19.3627 28.2864 19.3627 29.2139H12.6201V28.8975C12.6201 28.0627 12.6201 27.2321 12.6201 26.399C12.6201 26.0592 12.414 25.8538 12.1101 25.853C11.8062 25.8522 11.6167 26.0509 11.5967 26.399C11.5917 26.4824 11.5967 26.5659 11.5967 26.6494C11.5967 27.3879 11.5967 28.1273 11.5967 28.8674V29.2247C10.6484 29.2247 9.73428 29.2473 8.82269 29.2147C8.41531 29.1997 8.12397 28.8374 8.1223 28.4233C8.11729 26.7053 8.0697 24.9857 8.14066 23.2702C8.24668 20.7249 10.4647 18.4584 13 18.2481C13.7112 18.1896 14.4308 18.2397 15.193 18.2397C15.1679 18.5569 15.1462 18.8942 15.1145 19.2306C15.0001 20.4528 14.8883 21.6757 14.7614 22.897C14.7247 23.2518 14.7614 23.5648 14.9609 23.8754C15.2113 24.2677 15.4242 24.6885 15.6588 25.0933C15.8708 25.4607 16.1204 25.4665 16.3266 25.1059C16.6138 24.6117 16.9026 24.1166 17.1664 23.6099C17.2335 23.46 17.2589 23.2947 17.2399 23.1316C17.1113 21.6699 16.9711 20.2098 16.835 18.7481C16.8208 18.5778 16.8141 18.4042 16.8033 18.2347Z" fill="white"/>
<path d="M11.7139 12.2084C11.7145 11.0755 12.1641 9.989 12.964 9.18683C13.764 8.38466 14.8493 7.93216 15.9821 7.9284C16.5454 7.92632 17.1036 8.03542 17.6246 8.24946C18.1457 8.4635 18.6193 8.77826 19.0185 9.17572C19.4177 9.57317 19.7345 10.0455 19.9507 10.5656C20.167 11.0857 20.2785 11.6434 20.2788 12.2067C20.2753 13.3444 19.8207 14.4344 19.0148 15.2375C18.2089 16.0406 17.1174 16.4913 15.9796 16.4908C14.848 16.4823 13.7655 16.0278 12.9669 15.2261C12.1682 14.4243 11.718 13.34 11.7139 12.2084Z" fill="white"/>
<path d="M22.98 19.0637C23.4859 18.966 23.9074 18.8249 24.3315 18.8132C25.6321 18.7815 26.9344 18.7698 28.2342 18.8066C30.2376 18.8625 31.9414 20.5972 31.9857 22.6074C32.0116 23.7619 31.9949 24.9172 31.9915 26.0726C31.9915 26.485 31.7611 26.7404 31.3713 26.7404C29.2392 26.7471 27.1063 26.7404 24.9209 26.7404C24.9209 26.6085 24.9209 26.49 24.9209 26.3706C24.91 25.3096 24.9367 24.2469 24.8783 23.1884C24.7948 21.7016 24.1921 20.4185 23.2087 19.3116L22.98 19.0637Z" fill="white"/>
<path d="M8.77111 14.479C8.7697 14.8856 8.68802 15.2879 8.53075 15.6629C8.37348 16.0379 8.14371 16.3781 7.85465 16.6641C7.56559 16.95 7.22291 17.1761 6.84627 17.3293C6.46963 17.4825 6.06645 17.5599 5.65985 17.5569C4.84415 17.5481 4.06506 17.2169 3.49264 16.6358C2.92021 16.0546 2.60095 15.2705 2.60452 14.4548C2.60594 14.0483 2.6876 13.646 2.84482 13.2711C3.00204 12.8962 3.23172 12.556 3.52069 12.2701C3.80967 11.9841 4.15225 11.758 4.52879 11.6048C4.90533 11.4515 5.30842 11.3741 5.71495 11.3769C6.53079 11.3855 7.3101 11.7166 7.8827 12.2978C8.45531 12.879 8.77469 13.6631 8.77111 14.479Z" fill="white"/>
<path d="M29.3902 14.4673C29.3902 15.2829 29.0677 16.0654 28.4929 16.644C27.9182 17.2227 27.1379 17.5505 26.3224 17.556C25.9161 17.5568 25.5136 17.4775 25.1379 17.3227C24.7623 17.1679 24.4208 16.9405 24.1331 16.6537C23.8453 16.3669 23.6169 16.0261 23.4608 15.651C23.3048 15.2758 23.2242 14.8736 23.2236 14.4673C23.2236 14.0608 23.3039 13.6582 23.4598 13.2828C23.6157 12.9073 23.8442 12.5664 24.1321 12.2794C24.4201 11.9925 24.7619 11.7652 25.1379 11.6106C25.5139 11.456 25.9167 11.3772 26.3232 11.3786C27.1386 11.3843 27.9187 11.7123 28.4932 12.2909C29.0678 12.8695 29.3902 13.6519 29.3902 14.4673Z" fill="white"/>
<path d="M23.5513 7.4359C23.4987 7.50686 23.4269 7.68634 23.2942 7.76981C22.785 8.09037 22.2607 8.38839 21.7331 8.6789C21.6756 8.71549 21.6111 8.73982 21.5438 8.75038C21.4764 8.76094 21.4076 8.75749 21.3417 8.74025C21.2757 8.72302 21.214 8.69236 21.1604 8.65021C21.1068 8.60805 21.0625 8.5553 21.0302 8.49525C20.9954 8.43688 20.9728 8.37203 20.9639 8.30465C20.9549 8.23728 20.9597 8.16878 20.9781 8.10334C20.9964 8.03789 21.0279 7.97687 21.0706 7.92398C21.1133 7.87109 21.1663 7.82744 21.2264 7.79569C21.7423 7.48515 22.2615 7.17878 22.7916 6.89328C23.1439 6.70379 23.5471 6.95422 23.5513 7.4359Z" fill="white"/>
<path d="M8.89566 6.77307C9.08098 6.85071 9.19117 6.8841 9.28884 6.94003C9.75855 7.20605 10.2266 7.47596 10.693 7.74977C11.0185 7.94094 11.1195 8.23395 10.9626 8.50108C10.8057 8.76822 10.5127 8.82749 10.1737 8.63549C9.68621 8.35917 9.19869 8.08119 8.71785 7.79235C8.49162 7.65711 8.35556 7.43589 8.48328 7.18796C8.57093 7.016 8.76376 6.89996 8.89566 6.77307Z" fill="white"/>
<path d="M13.4094 5.97751C13.2783 6.12026 13.1689 6.2989 13.0103 6.39491C12.9651 6.42266 12.9147 6.44112 12.8623 6.44922C12.8098 6.45732 12.7562 6.45488 12.7047 6.44206C12.6532 6.42924 12.6047 6.40629 12.5622 6.37454C12.5196 6.3428 12.4838 6.3029 12.4569 6.25717C12.1054 5.69452 11.7682 5.12185 11.4551 4.53499C11.3407 4.31795 11.4276 4.0792 11.6521 3.93979C11.8767 3.80038 12.1355 3.79203 12.2715 4.00407C12.6464 4.58842 12.9753 5.19782 13.32 5.7997C13.335 5.83823 13.3442 5.87872 13.3476 5.91991L13.4094 5.97751Z" fill="white"/>
<path d="M20.5676 4.43398C20.5384 4.52479 20.5024 4.61326 20.4599 4.6986C20.1933 5.16776 19.9234 5.63468 19.6501 6.09938C19.4523 6.4333 19.1735 6.53013 18.8988 6.36735C18.6242 6.20456 18.5749 5.91072 18.7627 5.58098C19.041 5.09402 19.3221 4.60928 19.6059 4.12677C19.6595 4.01751 19.7518 3.93207 19.8649 3.88702C19.9779 3.84198 20.1037 3.84055 20.2178 3.88302C20.4515 3.95397 20.5684 4.13095 20.5676 4.43398Z" fill="white"/>
<path d="M16.5072 4.16435C16.5072 4.46571 16.5147 4.76707 16.5072 5.06843C16.4997 5.36979 16.2893 5.58767 16.0063 5.59101C15.9385 5.593 15.8709 5.58103 15.8078 5.55584C15.7448 5.53064 15.6876 5.49277 15.6397 5.44455C15.5919 5.39634 15.5545 5.33882 15.5298 5.27556C15.5052 5.21229 15.4937 5.14464 15.4963 5.07678C15.4863 4.47406 15.4863 3.87106 15.4963 3.26779C15.495 3.19989 15.5075 3.13244 15.5331 3.06953C15.5587 3.00663 15.5969 2.94959 15.6452 2.90188C15.6935 2.85417 15.7511 2.81679 15.8143 2.79201C15.8775 2.76723 15.9451 2.75557 16.013 2.75773C16.2818 2.76441 16.4847 2.96977 16.5139 3.2586C16.5139 3.27975 16.5139 3.30062 16.5139 3.32121V4.16352L16.5072 4.16435Z" fill="white"/>
</g>
<defs>
<clipPath id="clip0_1_673">
<rect width="32" height="26.4845" fill="white" transform="translate(0 2.75772)"/>
</clipPath>
</defs>
</svg>
