<svg width="32" height="32" viewBox="0 0 32 32" fill="none" xmlns="http://www.w3.org/2000/svg">
<g clip-path="url(#clip0_1_735)">
<path d="M15.9993 13.6746C15.9993 14.7586 15.9993 15.8522 15.9993 16.9457C15.9993 17.5111 16.1907 17.7035 16.7398 17.7044C17.9651 17.7044 19.191 17.7044 20.4175 17.7044C20.9189 17.7044 21.0987 17.5341 21.1456 17.0347C21.2116 16.3372 21.5369 15.8187 22.2066 15.5594C23.3308 15.126 24.4502 15.8254 24.565 17.0261C24.6109 17.5045 24.7841 17.6958 25.2127 17.7015C26.4985 17.7073 27.7841 17.7073 29.0693 17.7015C29.4893 17.7015 29.7094 17.4815 29.7103 17.0605C29.7103 12.9191 29.7103 8.77805 29.7103 4.63729C29.7103 4.19719 29.4931 3.99054 29.0406 3.98767C28.0408 3.98767 27.041 3.98767 26.0412 3.98767H25.6729C25.1457 2.47124 24.2512 1.74316 22.9146 1.71541C21.5379 1.68767 20.6299 2.39565 20.0243 3.98767H16.7924C16.1773 3.98767 16.0012 4.16179 16.0003 4.76358C16.0003 5.1922 16.0003 5.62082 16.0003 6.04944V8.02988C14.2781 8.49007 13.7663 9.7367 13.7328 10.7815C13.6878 12.1439 14.4121 13.0642 15.9993 13.6746ZM24.1239 21.4816C24.145 21.5935 24.1545 21.6624 24.1708 21.7294C24.6941 23.8811 23.3987 26.0099 21.2049 26.271C19.5852 26.4624 17.9271 26.3437 16.2863 26.3246C16.1399 26.3246 15.917 26.0625 15.8663 25.8836C15.7544 25.4875 16.0385 25.2138 16.514 25.2138C17.8822 25.2081 19.2513 25.2234 20.6194 25.2052C21.7675 25.1909 22.6697 24.5279 22.9978 23.4955C23.5441 21.7734 22.3999 20.1527 20.5955 20.124C19.3106 20.103 18.0257 20.1125 16.7398 20.124C16.2265 20.1361 15.7221 19.9887 15.2961 19.7021C14.7029 19.305 14.0925 18.9367 13.4907 18.554C12.6036 17.9858 11.5696 17.6898 10.5162 17.7025C9.33755 17.7025 8.1598 17.7025 6.98206 17.7025H6.40228V26.2978C6.83759 26.4365 7.30448 26.5083 7.69196 26.7226C9.05435 27.4765 10.3861 28.2831 11.7342 29.0628C14.3174 30.5582 16.9771 30.6893 19.6885 29.4359C21.5637 28.5663 23.4265 27.6698 25.294 26.7839C27.1118 25.9228 28.9296 25.077 30.734 24.2007C31.2389 23.967 31.6361 23.5503 31.8452 23.0347C32.0543 22.5192 32.0596 21.9435 31.8601 21.4242C31.487 20.3718 30.3829 19.7117 29.298 19.9948C27.5758 20.4483 25.8728 20.9736 24.1239 21.4778V21.4816ZM0.000745225 22.025C0.000745225 23.4401 0.000745225 24.856 0.000745225 26.271C0.000745225 27.0221 0.474331 27.489 1.2292 27.4937C1.98406 27.4985 2.7284 27.4937 3.47753 27.4937C4.5663 27.488 5.28576 26.7705 5.28672 25.6759C5.28672 23.2522 5.28672 20.8259 5.28672 18.3971C5.28672 17.3571 4.55769 16.6319 3.51102 16.6233C2.76189 16.6176 2.01181 16.6233 1.26268 16.6233C0.458066 16.6233 0.00170249 17.0825 -0.000210988 17.8833C-0.00148664 19.2623 -0.00116825 20.6416 0.000745225 22.0212V22.025Z" fill="white"/>
<path d="M15.9993 13.6746C14.4121 13.0681 13.6879 12.1439 13.7319 10.7834C13.7654 9.73862 14.2801 8.48721 15.9993 8.0318V6.0504C15.9993 5.62179 15.9993 5.19316 15.9993 4.76454C15.9993 4.16275 16.1763 3.98959 16.7915 3.98863H20.0282C20.6338 2.39662 21.5417 1.69246 22.9185 1.71638C24.2579 1.74412 25.1496 2.4722 25.6767 3.98863H26.0451C27.0449 3.98863 28.0447 3.98863 29.0445 3.98863C29.4941 3.98863 29.7142 4.19816 29.7142 4.63826C29.7142 8.77902 29.7142 12.9201 29.7142 17.0615C29.7142 17.4825 29.4932 17.7006 29.0732 17.7025C27.7873 17.7076 26.5018 17.7076 25.2165 17.7025C24.7879 17.7025 24.6148 17.5112 24.5688 17.0271C24.454 15.8263 23.3346 15.127 22.2105 15.5604C21.5408 15.8196 21.2155 16.3382 21.1495 17.0357C21.1026 17.5341 20.9227 17.7054 20.4214 17.7054C19.1948 17.7054 17.9689 17.7054 16.7437 17.7054C16.1916 17.7054 16.0041 17.514 16.0032 16.9467C15.9984 15.8483 15.9993 14.7548 15.9993 13.6746Z" fill="white"/>
<path d="M24.124 21.4778C25.8729 20.9736 27.5759 20.4483 29.298 19.9977C30.383 19.7107 31.487 20.3804 31.8602 21.4271C32.0583 21.9458 32.0522 22.5204 31.8432 23.0348C31.6342 23.5492 31.2378 23.9652 30.7341 24.1988C28.9297 25.0789 27.109 25.9209 25.2941 26.7819C23.4265 27.6679 21.5628 28.5643 19.6886 29.434C16.9772 30.6912 14.3203 30.5563 11.7342 29.0609C10.3862 28.2811 9.05538 27.4746 7.69203 26.7207C7.30455 26.5064 6.83766 26.4337 6.40234 26.2959V17.7006H6.98213C8.15987 17.7006 9.33762 17.7006 10.5163 17.7006C11.5697 17.6879 12.6037 17.9839 13.4908 18.5521C14.0926 18.9348 14.703 19.3041 15.2962 19.7002C15.7231 19.9861 16.2282 20.1326 16.7418 20.1192C18.0277 20.1087 19.3126 20.0991 20.5975 20.1192C22.4019 20.1479 23.5461 21.7686 22.9998 23.4908C22.6717 24.5231 21.7733 25.1861 20.6214 25.2005C19.2532 25.2186 17.8842 25.2005 16.516 25.2091C16.0376 25.2091 15.7564 25.4817 15.8683 25.8788C15.919 26.0577 16.1419 26.3189 16.2883 26.3198C17.9291 26.339 19.5871 26.4586 21.2069 26.2663C23.3988 26.0051 24.6942 23.8744 24.1728 21.7246C24.1546 21.6586 24.145 21.5897 24.124 21.4778Z" fill="white"/>
<path d="M0.00103267 22.0212C0.00103267 20.6416 0.00103267 19.262 0.00103267 17.8824C0.00103267 17.0816 0.459311 16.6262 1.26393 16.6224C2.01305 16.6224 2.76313 16.6166 3.51226 16.6224C4.55893 16.631 5.28701 17.3562 5.28796 18.3961C5.28796 20.8199 5.28796 23.2462 5.28796 25.675C5.28796 26.7667 4.56754 27.4842 3.47877 27.4928C2.72997 27.4966 1.98052 27.4966 1.23044 27.4928C0.475575 27.488 0.00390382 27.0211 0.00199034 26.2701C-0.00183661 24.8522 0.00103267 23.4334 0.00103267 22.0212Z" fill="white"/>
</g>
<defs>
<clipPath id="clip0_1_735">
<rect width="32" height="28.5787" fill="white" transform="translate(0 1.71063)"/>
</clipPath>
</defs>
</svg>
