<svg width="217" height="108" viewBox="0 0 217 108" fill="none" xmlns="http://www.w3.org/2000/svg">
<rect width="216.548" height="108" rx="16" fill="white"/>
<mask id="mask0_1_54" style="mask-type:luminance" maskUnits="userSpaceOnUse" x="58" y="71" width="101" height="1">
<path d="M58.0764 71.2004H158.472V71.8488H58.0764V71.2004Z" fill="white"/>
</mask>
<g mask="url(#mask0_1_54)">
<path fill-rule="evenodd" clip-rule="evenodd" d="M58.0764 71.8126H158.472V71.2119H58.0764V71.8126Z" fill="#8D3941"/>
</g>
<mask id="mask1_1_54" style="mask-type:luminance" maskUnits="userSpaceOnUse" x="76" y="74" width="65" height="10">
<path d="M76.0999 74.8298H140.546V83.9999H76.0999V74.8298Z" fill="white"/>
</mask>
<g mask="url(#mask1_1_54)">
<path fill-rule="evenodd" clip-rule="evenodd" d="M138.618 81.766C138.439 82.2558 137.475 83.0511 136.196 83.0511C134.63 83.0511 134.05 82.268 134.41 80.9034H140.312C140.92 78.6064 140.167 77.1076 137.833 77.1076C135.163 77.1076 133.531 78.7163 133.001 80.7302C132.507 82.6155 133.484 83.9998 135.758 83.9998C137.056 83.9998 137.645 83.747 138.072 83.55C139.234 82.9969 139.849 82.0836 139.977 81.766M134.638 80.0358C134.903 79.0217 136.138 78.0978 137.39 78.0978C139.046 78.0978 139.324 79.0217 139.136 80.0358H134.638ZM131.337 79.4918C131.396 78.619 130.933 78.0978 129.79 78.0978C128.101 78.0978 127.223 79.3925 126.919 80.5494C126.624 81.6663 126.595 83.0511 128.468 83.0511C129.379 83.0511 130.31 82.5051 130.803 81.5072H132.12C131.709 82.5415 130.538 83.9998 128.17 83.9998C125.897 83.9998 124.918 82.6155 125.413 80.7302C125.945 78.7163 127.577 77.1076 130.251 77.1076C132.367 77.1076 132.839 78.3546 132.653 79.4918H131.337ZM123.432 83.8119H122.071L123.126 79.7992C123.432 78.6656 123.175 78.0978 121.847 78.0978C121.073 78.0978 119.609 78.4904 119.143 80.2617L118.206 83.8119H116.845L118.566 77.2955H119.85L119.605 78.2158H119.639C120.019 77.8689 120.979 77.1076 122.366 77.1076C123.622 77.1076 125.088 77.5214 124.594 79.3798L123.432 83.8119ZM110.949 79.275C111.171 78.7776 111.592 78.0203 113.139 78.0203C114.421 78.0203 114.934 78.3946 114.756 79.0779C114.587 79.7248 114.175 79.8205 113.844 79.8499L111.543 80.0758C109.229 80.2997 108.692 81.569 108.55 82.115C108.252 83.2355 109.101 83.9998 110.585 83.9998C112.163 83.9998 113.139 83.398 113.787 82.9407C113.7 83.4381 113.752 83.935 114.958 83.935C115.269 83.935 115.489 83.861 115.733 83.8119L115.943 83.0166C115.784 83.0399 115.606 83.0617 115.484 83.0617C115.207 83.0617 115.067 82.9569 115.137 82.6808L116.126 78.928C116.567 77.2595 114.257 77.1076 113.609 77.1076C111.617 77.1076 110.172 77.724 109.698 79.275H110.949ZM114.076 81.5563C113.844 82.4296 112.433 83.0855 111.167 83.0855C110.146 83.0855 109.81 82.6641 109.994 81.9555C110.213 81.1293 111.319 80.9703 112.004 80.8963C113.734 80.7211 114.105 80.6238 114.356 80.4861L114.076 81.5563ZM105.401 83.8119H104.037L105.755 77.2955H107.035L106.753 78.384H106.778C107.525 77.6192 108.369 77.1076 109.39 77.1076C109.561 77.1076 109.633 77.1238 109.735 77.1491L109.434 78.2827H108.924C107.661 78.2827 106.647 79.0779 106.393 80.0236L105.401 83.8119ZM100.824 83.8119L101.072 82.8667L101.047 82.8414C100.277 83.5986 99.4773 83.9998 98.1811 83.9998C96.9883 83.9998 95.6723 83.5409 96.0846 81.9823L97.3175 77.2955H98.6806L97.5378 81.6176C97.2577 82.6894 97.8418 83.0511 98.7221 83.0511C100.439 83.0511 101.27 81.8294 101.518 80.8837L102.464 77.2955H103.825L102.108 83.8119H100.824ZM93.937 79.1539C94.0312 78.7396 94.0256 78.0568 92.31 78.0568C91.8962 78.0568 90.6745 78.1723 90.4628 78.9802C90.3184 79.5135 90.7034 79.6402 91.7007 79.8499L92.9878 80.1193C94.5823 80.4587 95.0412 80.9597 94.8047 81.8435C94.4506 83.1919 92.8632 83.9998 91.0377 83.9998C87.8435 83.9998 88.0026 82.5051 88.1657 81.7169H89.4761C89.391 82.2285 89.3601 83.0511 91.2707 83.0511C92.2467 83.0511 93.2122 82.7386 93.4021 82.0173C93.5394 81.493 93.1382 81.3173 92.0391 81.0863L90.5443 80.7753C89.4761 80.5494 88.8576 80.0884 89.0926 79.1884C89.469 77.7584 91.1101 77.1076 92.7026 77.1076C95.5913 77.1076 95.34 78.8282 95.2509 79.1539H93.937ZM86.4065 83.8119H85.0455L86.1026 79.7992C86.403 78.6656 86.1553 78.0978 84.8252 78.0978C84.0527 78.0978 82.5869 78.4904 82.1203 80.2617L81.1823 83.8119H79.8212L81.5439 77.2955H82.8254L82.5833 78.2158H82.6122C82.9976 77.8689 83.9555 77.1076 85.3509 77.1076C86.598 77.1076 88.0624 77.5214 87.5781 79.3798L86.4065 83.8119ZM77.7263 83.8119H76.2224L78.5833 74.8662H80.0816" fill="#8D3941"/>
</g>
<mask id="mask2_1_54" style="mask-type:luminance" maskUnits="userSpaceOnUse" x="58" y="57" width="101" height="12">
<path d="M58.0764 57.4534H158.472V68.7346H58.0764V57.4534Z" fill="white"/>
</mask>
<g mask="url(#mask2_1_54)">
<path fill-rule="evenodd" clip-rule="evenodd" d="M156.741 66.028C156.689 66.6009 155.805 67.5465 154.312 67.5465C152.49 67.5465 151.572 66.6171 151.572 65.0033H158.453C158.453 62.2716 157.12 60.4948 154.403 60.4948C151.285 60.4948 149.877 62.4054 149.877 64.7992C149.877 67.0314 151.451 68.669 154.092 68.669C155.608 68.669 156.219 68.3798 156.65 68.1412C157.843 67.4848 158.275 66.3967 158.331 66.028M151.572 63.971C151.572 62.7726 152.724 61.6663 154.184 61.6663C156.115 61.6663 156.727 62.7726 156.814 63.971H151.572ZM148.166 61.7945V68.4466H146.581V61.7945H145.285V60.7191H146.581V59.387C146.581 58.221 147.481 57.6896 149.029 57.6896C149.264 57.6896 149.497 57.7003 149.753 57.7165V58.8845C149.553 58.8734 149.298 58.8572 149.103 58.8572C148.416 58.8572 148.166 59.1337 148.166 59.7593V60.7191H149.753V61.7945H148.166ZM142.579 57.8305H144.166V59.311H142.579V57.8305ZM144.166 68.4466H142.579V60.7191H144.166V68.4466ZM134.814 67.1737H141.374V68.4466H133.069V57.8305H134.814V67.1737ZM126.204 68.4466H124.611V63.6889C124.611 62.342 124.148 61.6663 122.598 61.6663C121.696 61.6663 120.109 62.1323 120.109 64.2385V68.4466H118.528V60.7191H120.024V61.8127H120.058C120.399 61.3984 121.283 60.4948 122.903 60.4948C124.363 60.4948 126.204 60.983 126.204 63.1864V68.4466ZM114.997 68.4466V67.3242L114.959 67.2968C114.295 68.1934 113.48 68.669 111.971 68.669C110.583 68.669 108.905 68.125 108.905 66.2742V60.7191H110.49V65.8456C110.49 67.1216 111.28 67.5465 112.312 67.5465C114.312 67.5465 114.903 66.0949 114.903 64.976V60.7191H116.491V68.4466H114.997ZM105.177 60.9415C105.084 59.2984 103.429 58.7812 101.969 58.7812C100.87 58.7812 99.0156 59.0324 99.0156 60.6452C99.0156 61.5488 99.7875 61.8396 100.548 61.988L104.239 62.6824C105.917 63.0076 107.173 63.8393 107.173 65.522C107.173 68.0364 104.328 68.7303 102.112 68.7303C99.7207 68.7303 98.78 68.1412 98.2021 67.7107C97.105 66.8972 96.8841 66.0098 96.8841 65.0195H98.5273C98.5273 66.9423 100.434 67.5015 102.094 67.5015C103.355 67.5015 105.481 67.2371 105.481 65.7134C105.481 64.6057 104.847 64.2511 102.726 63.8393L100.075 63.3348C99.2288 63.1717 97.3182 62.6824 97.3182 60.8367C97.3182 59.1808 98.6337 57.5554 101.77 57.5554C106.295 57.5554 106.741 59.774 106.816 60.9415H105.177ZM84.2363 63.0654C84.3447 62.4778 84.5979 61.5706 86.4001 61.5706C87.8949 61.5706 88.6141 62.0169 88.6141 62.8268C88.6141 63.5967 88.1664 63.7233 87.79 63.7522L85.1743 64.011C82.5425 64.2835 82.3074 65.7909 82.3074 66.4383C82.3074 67.7669 83.5388 68.669 85.2665 68.669C87.1032 68.669 88.0595 67.9639 88.6739 67.4123C88.723 68.0034 88.9434 68.5986 90.348 68.5986C90.7091 68.5986 90.9391 68.5064 91.2121 68.4466V67.5015C91.0292 67.5339 90.8342 67.5607 90.6878 67.5607C90.3642 67.5607 90.1687 67.4311 90.1687 67.1074V62.6551C90.1687 60.672 87.4269 60.4948 86.6711 60.4948C84.3447 60.4948 82.8519 61.2216 82.7795 63.0654H84.2363ZM88.5782 65.7747C88.5782 66.8091 87.1427 67.5881 85.6642 67.5881C84.4748 67.5881 83.9486 67.0907 83.9486 66.2504C83.9486 65.2743 85.1906 65.0773 85.966 64.9901C87.9349 64.7804 88.3305 64.6629 88.5782 64.5044V65.7747ZM80.798 68.4466H79.2095V57.832H80.798V68.4466ZM75.0535 68.4466H73.4646V60.7191H74.9593V62.0022H74.9973C75.6264 61.1006 76.4546 60.4948 77.6474 60.4948C77.8389 60.4948 77.9311 60.513 78.0597 60.5383V61.8831H77.4615C75.9865 61.8831 75.0535 62.8268 75.0535 63.9563V68.4466ZM69.6287 57.8305H71.2126V59.311H69.6287V57.8305ZM71.2126 68.4466H69.6287V60.7191H71.2126V68.4466ZM59.8265 63.4974H63.2642C64.6906 63.4974 66.2937 63.7917 66.2937 65.287C66.2937 66.4692 65.3754 67.2214 63.557 67.2214H59.8265V63.4974ZM58.0764 68.4466H63.6441C66.5075 68.4466 68.0417 67.0132 68.0417 65.3087C68.0417 63.4974 66.5434 63.0076 65.6991 62.729C67.1178 62.1835 67.4273 61.2069 67.4273 60.513C67.4273 59.0613 66.1853 57.8305 63.7687 57.8305H58.0764V68.4466ZM59.8265 59.0613H62.9988C64.9418 59.0613 65.6793 59.6256 65.6793 60.6158C65.6793 61.9105 64.6561 62.3299 62.9785 62.3299H59.8265" fill="#8D3941"/>
</g>
<path fill-rule="evenodd" clip-rule="evenodd" d="M107.751 49.6194H82.2424C82.2424 35.5127 93.6989 24 107.751 24" fill="#8D3941"/>
<path fill-rule="evenodd" clip-rule="evenodd" d="M107.753 49.6194H133.268C133.268 35.5127 121.809 24 107.753 24" fill="#B43E46"/>
<path fill-rule="evenodd" clip-rule="evenodd" d="M116.761 49.6191C116.736 48.7874 116.598 47.9816 116.362 47.2167L125.13 41.6926L115.304 44.9916C114.805 44.2252 114.189 43.5454 113.482 42.9655L118.14 33.0903L111.579 41.7595C110.719 41.3568 109.786 41.0924 108.806 40.9824L107.752 30.0391L106.703 40.9824C105.718 41.0924 104.789 41.3568 103.933 41.7595L97.3672 33.0903L102.018 42.9655C101.317 43.5454 100.699 44.2252 100.207 44.9916L90.3772 41.6926L99.1476 47.2167C98.907 47.9816 98.7718 48.7874 98.748 49.686H116.761" fill="white"/>
<path d="M116.761 49.6194C116.736 48.7877 116.598 47.9818 116.362 47.217L125.13 41.6929L115.304 44.9918C114.805 44.2255 114.189 43.5457 113.482 42.9658L118.14 33.0906L111.579 41.7597C110.719 41.357 109.786 41.0926 108.806 40.9827L107.752 30.0393L106.703 40.9827C105.718 41.0926 104.789 41.357 103.933 41.7597L97.3672 33.0906L102.018 42.9658C101.317 43.5457 100.699 44.2255 100.207 44.9918L90.3772 41.6929L99.1476 47.217C98.907 47.9818 98.7718 48.7877 98.748 49.6863H116.761V49.6194Z" stroke="white" stroke-width="0.288" stroke-miterlimit="10"/>
</svg>
