<svg width="218" height="108" viewBox="0 0 218 108" fill="none" xmlns="http://www.w3.org/2000/svg">
<rect x="0.548096" width="216.548" height="108" rx="16" fill="white"/>
<path d="M65.399 74C65.172 74 64.9656 73.9381 64.7592 73.8349L48.4537 64.6502C48.0409 64.4231 47.7932 64.0103 47.7932 63.5356V35.2797C47.7932 34.5779 48.3505 34 49.0729 34H81.7045C82.4062 34 82.9841 34.5573 82.9841 35.2797V63.5356C82.9841 63.9897 82.7158 64.4231 82.3237 64.6502L66.0182 73.8349C65.8118 73.9587 65.626 74 65.399 74ZM50.3732 62.8132L65.399 71.2755L80.4454 62.8132V36.5593H50.3732V62.8132Z" fill="#200B4F"/>
<path d="M65.399 61.2239C65.172 61.2239 64.9656 61.162 64.7592 61.0588L59.5992 58.128C59.1864 57.9009 58.9387 57.4881 58.9387 57.0134V51.6471H61.4981V56.2497L65.399 58.4376L69.9398 55.8782L71.1988 58.1073L66.0388 61.0382C65.8118 61.162 65.626 61.2239 65.399 61.2239Z" fill="#200B4F"/>
<path d="M65.399 67.6223C65.172 67.6223 64.9656 67.5604 64.7592 67.4572L54.0058 61.4097C53.593 61.1827 53.3453 60.7492 53.3453 60.2951V46.4458C53.3453 45.7441 53.9026 45.1661 54.625 45.1661H70.3938V47.7255H55.9047V59.5728L65.3577 64.8978L74.8108 59.5728V54.0206H77.4114V60.2745C77.4114 60.7286 77.1431 61.162 76.7509 61.3891L65.9975 67.4365C65.8118 67.581 65.626 67.6223 65.399 67.6223Z" fill="#200B4F"/>
<path d="M77.4114 49.129H74.852V42.1527H57.8861V39.5934H76.1111C76.8128 39.5934 77.3907 40.1507 77.3907 40.8731V49.129H77.4114Z" fill="#200B4F"/>
<path d="M94.4127 54.0103C94.4127 48.5408 98.4788 44.3302 104.072 44.3302C107.436 44.3302 110.409 46.0021 112.018 48.644L108.365 50.7699C107.54 49.3457 105.93 48.4788 104.072 48.4788C100.79 48.4788 98.6645 50.6873 98.6645 54.0103C98.6645 57.354 100.79 59.5418 104.072 59.5418C105.95 59.5418 107.581 58.6956 108.365 57.2508L112.018 59.3767C110.45 61.9979 107.457 63.6698 104.072 63.6698C98.4788 63.6698 94.4127 59.4799 94.4127 54.0103ZM148.592 63.6491H136.043V44.3302H148.592V48.4582H140.46V51.7606H147.622V55.9505H140.46V59.4799H148.592V63.6491ZM127.663 56.5903C129.789 55.517 131.234 53.3292 131.234 50.9763C131.234 47.2817 128.283 44.3302 124.629 44.3302H116.889V63.6698H121.306V57.3333H123.412L127.044 63.6698H131.791L127.663 56.5903ZM124.609 53.453H121.306V48.4788H124.609C125.806 48.4788 126.797 49.5728 126.797 50.9763C126.797 52.3798 125.806 53.453 124.609 53.453ZM160.481 44.3302H153.381V63.6078H160.481C165.785 63.6078 169.851 59.418 169.851 53.9484C169.851 48.5201 165.806 44.3302 160.481 44.3302ZM160.481 59.5212H157.798V48.4788H160.481C163.494 48.4788 165.6 50.6667 165.6 53.9897C165.62 57.2921 163.536 59.5212 160.481 59.5212Z" fill="#200B4F"/>
</svg>
