<svg width="43" height="32" viewBox="0 0 43 32" fill="none" xmlns="http://www.w3.org/2000/svg">
<path d="M33.1336 19.2385C33.6102 19.2385 34.0677 19.1658 34.523 19.0995C34.3755 19.5955 34.2237 20.0999 33.98 20.5531C33.7364 21.2115 33.3559 21.7822 32.9775 22.3572C32.6611 22.9793 32.1032 23.4004 31.6928 23.9327C31.2631 24.45 30.6774 24.7941 30.2136 25.2238C29.7583 25.6727 29.1619 25.8971 28.6873 26.2135C28.1914 26.4978 27.7596 26.812 27.2979 26.9617L26.1457 27.4362L25.1325 27.8573L26.1692 32L27.4454 31.6922C27.8537 31.5896 28.3517 31.4699 28.9182 31.3267C29.4975 31.2198 30.1153 30.9269 30.8036 30.6597C31.4833 30.3562 32.27 30.151 33.001 29.6636C33.7364 29.1976 34.585 28.8086 35.3332 28.1844C36.0578 27.5409 36.9321 26.983 37.5776 26.1643C38.2831 25.3991 38.9799 24.5953 39.5207 23.6804C40.147 22.8083 40.5724 21.8506 41.0213 20.9037C41.4275 19.9567 41.7545 18.9884 42.0217 18.0478C42.5283 16.1625 42.7549 14.3711 42.8426 12.8385C42.9152 11.3037 42.8725 10.0275 42.7827 9.10407C42.7507 8.668 42.6908 8.24476 42.648 7.9519L42.5946 7.59279L42.539 7.60561C42.1588 5.82962 41.2836 4.19756 40.0146 2.89821C38.7456 1.59887 37.1346 0.685335 35.3681 0.2633C33.6016 -0.158737 31.7517 -0.0720329 30.0324 0.513382C28.3131 1.09879 26.7947 2.159 25.6528 3.57134C24.5109 4.98368 23.7921 6.69046 23.5797 8.49422C23.3673 10.298 23.6699 12.125 24.4524 13.764C25.235 15.403 26.4656 16.7869 28.0019 17.7557C29.5382 18.7245 31.3173 19.2386 33.1336 19.2385ZM9.61987 19.2385C10.0966 19.2385 10.554 19.1658 11.0093 19.0995C10.8618 19.5955 10.7101 20.0999 10.4664 20.5531C10.2227 21.2115 9.84219 21.7822 9.46383 22.3572C9.14746 22.9793 8.58955 23.4004 8.17913 23.9327C7.74947 24.45 7.16376 24.7941 6.6999 25.2238C6.24459 25.6727 5.6482 25.8971 5.17365 26.2135C4.67772 26.4978 4.24593 26.812 3.78421 26.9617L2.63204 27.4362L1.61881 27.8573L2.65555 32L3.9317 31.6922C4.33998 31.5896 4.83805 31.4699 5.40451 31.3267C5.9838 31.2198 6.60157 30.9269 7.28988 30.6597C7.9675 30.354 8.75628 30.151 9.48734 29.6615C10.2227 29.1955 11.0713 28.8064 11.8195 28.1822C12.5441 27.5388 13.4184 26.9809 14.064 26.1643C14.7694 25.3991 15.4662 24.5953 16.007 23.6804C16.6334 22.8083 17.0587 21.8506 17.5076 20.9037C17.9138 19.9567 18.2408 18.9884 18.508 18.0478C19.0147 16.1625 19.2412 14.3711 19.3289 12.8385C19.4016 11.3037 19.3588 10.0275 19.269 9.10407C19.237 8.668 19.1771 8.24476 19.1344 7.9519L19.0809 7.59279L19.0253 7.60561C18.6451 5.82962 17.7699 4.19756 16.5009 2.89821C15.2319 1.59887 13.621 0.685335 11.8544 0.2633C10.0879 -0.158737 8.23803 -0.0720329 6.51873 0.513382C4.79943 1.09879 3.28101 2.159 2.13909 3.57134C0.997169 4.98368 0.278427 6.69046 0.0660095 8.49422C-0.146404 10.298 0.156181 12.125 0.938766 13.764C1.72135 15.403 2.95195 16.7869 4.48822 17.7557C6.02449 18.7245 7.80365 19.2386 9.61987 19.2385Z" fill="white"/>
</svg>
