<svg width="20" height="20" viewBox="0 0 20 20" fill="none" xmlns="http://www.w3.org/2000/svg">
<g opacity="0.72" clip-path="url(#clip0_1_175)">
<path d="M17.4973 8.3335C17.4973 14.1668 9.99876 19.1668 9.99876 19.1668C9.99876 19.1668 2.50024 14.1668 2.50024 8.3335C2.50024 6.34437 3.29026 4.43672 4.69651 3.0302C6.10275 1.62367 8.01003 0.833496 9.99876 0.833496C11.9875 0.833496 13.8948 1.62367 15.301 3.0302C16.7073 4.43672 17.4973 6.34437 17.4973 8.3335Z" stroke="#2E2E38" stroke-width="1.6" stroke-linecap="round" stroke-linejoin="round"/>
<path d="M9.99877 10.833C11.3792 10.833 12.4983 9.71372 12.4983 8.33301C12.4983 6.9523 11.3792 5.83301 9.99877 5.83301C8.61833 5.83301 7.49927 6.9523 7.49927 8.33301C7.49927 9.71372 8.61833 10.833 9.99877 10.833Z" stroke="#2E2E38" stroke-width="1.6" stroke-linecap="round" stroke-linejoin="round"/>
</g>
<defs>
<clipPath id="clip0_1_175">
<rect width="19.996" height="20" fill="white"/>
</clipPath>
</defs>
</svg>
