<svg width="40" height="40" viewBox="0 0 40 40" fill="none" xmlns="http://www.w3.org/2000/svg">
<g clip-path="url(#clip0_1_7)">
<path d="M0 20V40H20H40V20V0H20H0V20ZM8.47059 17.4609L8.57143 27.6522L13.3782 27.7565C18.7563 27.8609 18.5546 27.7217 17.2437 30.3304L16.7731 31.3043H10.5882H4.36975V19.3043V7.30434H6.38655H8.40336L8.47059 17.4609ZM32.0672 19.1304C34.5882 25.6348 36.6387 31.0261 36.6387 31.1304C36.6387 31.2348 35.7647 31.3043 34.6891 31.3043C32.4706 31.3043 32.7059 31.6174 30.8235 26.6087L30.0504 24.5217L24.8403 24.4174L19.6303 24.3478L19.1933 25.5652C18.7899 26.7826 18.7563 26.7826 16.7731 26.7826C15.6975 26.7826 14.7899 26.6435 14.7899 26.4696C14.7899 26.1565 21.9744 8.20416 22.3778 7.54329C22.445 7.40416 23.6639 7.30434 25.042 7.30434H27.4958L32.0672 19.1304Z" fill="#052761"/>
<path d="M24.4034 12.9044C24.1345 13.5653 23.2942 15.5479 22.5547 17.3566C21.7816 19.1653 21.1765 20.6957 21.1765 20.7653C21.1765 20.8348 22.8572 20.8696 24.874 20.8696C26.9244 20.8696 28.5715 20.8348 28.5715 20.7653C28.5715 20.5566 25.1765 12.0348 25.0421 11.8609C24.9412 11.7914 24.6723 12.2435 24.4034 12.9044Z" fill="#052761"/>
</g>
<defs>
<clipPath id="clip0_1_7">
<rect width="40" height="40" rx="4" fill="white"/>
</clipPath>
</defs>
</svg>
