<svg width="213" height="108" viewBox="0 0 213 108" fill="none" xmlns="http://www.w3.org/2000/svg">
<rect width="212.736" height="108" rx="16" fill="white"/>
<path d="M59.4893 49.1329C59.1141 44.2346 54.6326 41.9834 50.7347 42.6504C48.9005 42.9631 47.358 43.8802 45.9406 45.0266C45.8155 45.1309 45.6696 45.2142 45.4612 45.381C45.4612 44.7348 45.4403 44.1929 45.4612 43.6509C45.5029 43.1923 45.3153 43.0881 44.8775 43.0881C43.4393 43.109 41.9802 43.109 40.5419 43.0881C40.1042 43.0881 40 43.2132 40 43.6509C40.0208 50.6754 40 57.6999 40 64.7244C40 64.8911 40.0208 65.0579 40.0208 65.2455C41.8343 65.2455 43.6269 65.2455 45.4403 65.2455C45.4403 65.037 45.4403 64.8494 45.4403 64.6618C45.482 60.764 45.482 56.8453 45.5445 52.9474C45.5654 51.4675 46.0865 50.1126 47.1079 48.987C48.2751 47.7155 49.7134 47.2778 51.3809 47.6947C52.9234 48.0907 53.6738 49.2372 53.8614 50.6962C54.049 52.0928 54.1115 53.5102 54.1323 54.9276C54.174 58.1376 54.1532 61.3476 54.1532 64.5576C54.1532 64.7035 54.1115 64.8494 54.174 64.9745C54.2157 65.0787 54.3408 65.2455 54.4241 65.2663C56.1125 65.2871 57.7801 65.2871 59.5518 65.2871C59.5518 65.0579 59.5518 64.8911 59.5518 64.7244C59.5518 60.0761 59.5518 55.4487 59.5518 50.8005C59.5518 50.2168 59.531 49.6749 59.4893 49.1329ZM172.715 50.6337C172.715 49.9875 172.631 49.3414 172.548 48.6952C172.027 44.2554 167.754 42.0042 163.877 42.6712C162.251 42.9422 160.854 43.6926 159.562 44.6723C159.27 44.9016 158.978 45.11 158.562 45.4227C158.562 44.714 158.541 44.1512 158.562 43.5884C158.582 43.234 158.457 43.109 158.082 43.109C156.644 43.1298 155.185 43.1298 153.747 43.109C153.288 43.109 153.142 43.2132 153.142 43.6926C153.163 46.9443 153.163 50.196 153.163 53.4477C153.163 57.1996 153.163 60.9516 153.163 64.7035C153.163 65.1621 153.309 65.2871 153.747 65.2663C155.122 65.2455 156.519 65.2663 157.894 65.2663C158.582 65.2663 158.582 65.2663 158.582 64.5576C158.624 60.5764 158.624 56.5951 158.77 52.6139C158.832 50.9047 159.562 49.4039 160.979 48.3617C162.96 46.9026 166.482 47.2153 167.024 50.6754C167.191 51.7384 167.274 52.8432 167.274 53.9271C167.316 57.5331 167.295 61.1183 167.295 64.7244C167.295 64.912 167.316 65.0787 167.316 65.2663C169.15 65.2663 170.922 65.2663 172.736 65.2663C172.736 65.0787 172.736 64.912 172.736 64.7452C172.715 60.0136 172.715 55.3236 172.715 50.6337ZM92.9025 43.0881C91.4017 43.0881 89.9217 43.109 88.421 43.0673C87.9832 43.0673 87.7956 43.2132 87.6289 43.5884C85.6695 47.924 83.6893 52.2387 81.73 56.5743C81.6675 56.6994 81.5841 56.8244 81.4799 57.0329C81.3756 56.7827 81.2923 56.6368 81.2297 56.4909C79.4997 52.3221 77.7696 48.1324 76.0395 43.9636C75.6018 42.9005 75.8936 43.0881 74.7264 43.0673C73.2256 43.0464 71.7039 43.0673 70.1198 43.0673C70.224 43.3174 70.2657 43.4633 70.3282 43.6301C72.9963 50.1126 75.6435 56.5951 78.3115 63.0568C78.4783 63.4529 78.4575 63.7655 78.2907 64.1616C76.915 67.0589 75.581 69.9562 74.2261 72.8536C74.1636 72.9995 74.101 73.1454 74.0177 73.3538C75.7686 73.3538 77.4569 73.333 79.1245 73.3538C79.5205 73.3538 79.6873 73.2288 79.854 72.8953C83.8769 64.0782 87.9207 55.2611 91.9645 46.444C92.4647 45.3393 92.965 44.2554 93.5069 43.0673C93.236 43.0881 93.0692 43.0881 92.9025 43.0881ZM67.7852 43.0881C66.2845 43.109 64.8045 43.109 63.3038 43.0881C62.8869 43.0881 62.7827 43.2132 62.7827 43.6092C62.8035 50.6546 62.7827 57.679 62.7827 64.7244C62.7827 64.8911 62.8035 65.0579 62.8035 65.2246C64.6169 65.2246 66.3887 65.2246 68.223 65.2246C68.2438 65.0579 68.2438 64.9328 68.2438 64.8077C68.2438 57.7207 68.2438 50.6337 68.2438 43.5675C68.2647 43.1923 68.1604 43.0881 67.7852 43.0881ZM148.598 43.0881C147.139 43.109 145.68 43.0881 144.2 43.0881C143.595 43.0881 143.595 43.0881 143.595 43.6926C143.595 50.6754 143.595 57.6373 143.595 64.6201C143.595 64.8077 143.595 64.9953 143.595 65.2246C143.783 65.2455 143.887 65.2455 143.991 65.2455C145.534 65.2455 147.076 65.2246 148.619 65.2663C149.015 65.2663 149.077 65.1204 149.077 64.766C149.077 57.6999 149.077 50.6337 149.077 43.5675C149.077 43.1923 148.973 43.0881 148.598 43.0881ZM146.347 34.0209C144.7 33.7916 142.824 35.48 142.866 37.4602C142.908 39.5029 144.387 41.0662 146.389 41.0662C148.327 41.0662 149.911 39.4821 149.89 37.5227C149.869 35.5634 148.327 34.0209 146.347 34.0209ZM65.5132 34.0209C63.804 33.7916 61.9697 35.5634 62.0114 37.4602C62.074 39.5238 63.533 41.0662 65.5341 41.0871C67.4934 41.0871 68.9734 39.5655 69.0151 37.5644C69.0776 35.48 67.1391 33.7916 65.5132 34.0209ZM139.718 43.0881C138.343 43.109 136.946 43.0881 135.57 43.0881C134.632 43.0881 134.757 42.9839 134.737 43.901C134.737 44.4222 134.737 44.9433 134.737 45.4435C134.487 45.3601 134.341 45.2559 134.216 45.1517C132.069 43.2549 129.63 42.3169 126.732 42.567C123.856 42.8172 121.563 44.1095 119.791 46.319C117.415 49.2997 116.977 52.7598 117.582 56.3867C118.437 61.3684 122.605 64.9536 127.066 65.2038C129.797 65.3497 132.215 64.766 134.236 62.8692C134.361 62.765 134.487 62.6608 134.612 62.5774C134.653 62.5983 134.695 62.6191 134.716 62.6399C134.695 63.1402 134.653 63.6405 134.632 64.1616C134.549 66.517 133.319 68.0177 131.047 68.6014C129.692 68.9349 128.296 68.9766 126.92 68.7681C125.649 68.5805 124.502 68.122 123.564 67.184C123.439 67.0589 123.21 67.0172 123.022 67.0172C121.334 66.9964 119.625 67.0172 117.936 67.0172C117.77 67.0172 117.603 67.0172 117.373 67.0172C117.457 67.2882 117.519 67.4966 117.603 67.6842C119.166 71.4153 122.105 73.2496 125.982 73.7916C126.524 73.8749 127.045 73.9375 127.587 74C128.338 74 129.088 74 129.838 74C129.984 73.9583 130.13 73.9166 130.276 73.8958C131.11 73.7707 131.944 73.7082 132.756 73.4997C136.071 72.6243 138.468 70.7066 139.51 67.309C140.01 65.6415 140.156 63.9114 140.156 62.2022C140.177 56.0115 140.156 49.8208 140.177 43.6092C140.198 43.2132 140.073 43.0881 139.718 43.0881ZM134.966 54.6983C134.778 56.4701 134.111 57.9708 132.694 59.0756C130.818 60.493 128.734 60.6389 126.607 59.826C124.523 59.0131 123.314 57.4081 122.939 55.1986C122.71 53.8437 122.772 52.4888 123.356 51.2173C124.46 48.862 126.336 47.6738 129.672 47.653C132.673 47.5905 135.383 50.6546 134.966 54.6983ZM103.554 42.5462C97.4882 42.4836 92.1104 47.6322 92.0478 54.0522C91.9853 60.4721 97.1755 65.8083 103.345 65.8291C110.078 65.8499 115.206 60.8265 115.227 54.1981C115.289 47.8406 110.203 42.6087 103.554 42.5462ZM108.244 58.5545C106.597 60.5138 104.45 61.1183 102.032 60.5347C99.7185 59.9719 98.3219 58.3669 97.7383 56.074C97.5924 55.4696 97.5507 54.8234 97.4673 54.1981C97.5299 51.3633 98.9473 49.0496 101.303 48.1533C105.117 46.6942 109.223 48.9453 109.64 53.2809C109.849 55.2194 109.515 57.012 108.244 58.5545Z" fill="url(#paint0_linear_1_628)"/>
<defs>
<linearGradient id="paint0_linear_1_628" x1="39.9901" y1="53.9885" x2="172.717" y2="53.9885" gradientUnits="userSpaceOnUse">
<stop stop-color="#24A0D0"/>
<stop offset="1" stop-color="#0069B5"/>
</linearGradient>
</defs>
</svg>
