<svg width="217" height="108" viewBox="0 0 217 108" fill="none" xmlns="http://www.w3.org/2000/svg">
<rect x="0.0961914" width="216.548" height="108" rx="16" fill="white"/>
<g clip-path="url(#clip0_1_77)">
<path fill-rule="evenodd" clip-rule="evenodd" d="M170.578 45.7922C169.435 42.4848 166.336 40.0952 162.699 40.0952H162.63C160.258 40.0952 158.128 41.0995 156.621 42.7099C155.098 41.0995 152.968 40.0952 150.613 40.0952H150.543C148.465 40.0952 146.561 40.8744 145.106 42.1558V41.5151C145.054 40.8571 144.535 40.355 143.877 40.355H138.301C137.626 40.355 137.072 40.9264 137.072 41.619V72.5108C137.072 73.2034 137.626 73.7749 138.301 73.7749H143.877C144.5 73.7749 145.002 73.3073 145.089 72.684V54.5541V50.5021C145.089 50.4329 145.089 50.3463 145.106 50.277C145.193 49.29 145.903 48.4762 147.028 48.3723H148.05C148.517 48.4069 148.916 48.5801 149.227 48.8398C149.712 49.2381 149.989 49.8441 149.989 50.5021V54.5541V71.7489L150.007 72.5627C150.007 73.2554 150.561 73.8268 151.236 73.8268H156.812C157.47 73.8268 158.007 73.29 158.041 72.632V54.5368V50.4848C158.041 49.7576 158.37 49.0995 158.959 48.7013C159.236 48.5108 159.582 48.3896 159.981 48.355H161.002C162.214 48.4589 162.942 49.3939 162.942 50.4848V54.5368V55.6796H162.959V72.5108C162.959 73.2034 163.513 73.7749 164.188 73.7749H169.764C170.44 73.7749 170.994 73.2034 170.994 72.5108V48.8052C170.994 47.1948 170.82 46.5021 170.578 45.7922Z" fill="#24B9EC"/>
<path fill-rule="evenodd" clip-rule="evenodd" d="M132.777 40.4242H129.591V35.1602V35.1429C129.591 34.5022 129.089 34 128.465 34C128.396 34 128.327 34.0173 128.258 34.0173C124.708 35.0043 125.435 40.0087 118.959 40.4242H118.336C118.249 40.4242 118.145 40.4416 118.059 40.4589C117.504 40.5801 117.089 41.0823 117.089 41.6883V47.368C117.089 48.0606 117.643 48.632 118.318 48.632H121.678V65.0996C121.678 65.1169 121.678 65.1169 121.678 65.1342V72.7532C121.678 73.4459 122.232 74 122.89 74H128.414C129.089 74 129.626 73.4459 129.626 72.7532V67.4026V48.632H132.76C133.435 48.632 133.989 48.0606 133.989 47.368V41.6883C134.024 40.9957 133.47 40.4242 132.777 40.4242Z" fill="#24B9EC"/>
<path fill-rule="evenodd" clip-rule="evenodd" d="M112.691 40.4243H107.115C106.44 40.4243 105.885 40.9957 105.885 41.6884V44.736H105.868V48.459C105.885 48.5455 105.903 48.6321 105.903 48.7187V52.5628V52.5802V53.446C105.885 54.1732 105.314 54.762 104.604 54.762H102.266C101.539 54.762 100.95 54.1732 100.95 53.4286V44.736H100.933V41.6884C100.933 40.9957 100.379 40.4243 99.7036 40.4243H94.1279C93.4526 40.4243 92.8984 40.9957 92.8984 41.6884V54.5888C92.8984 59.4893 96.327 62.9698 101.141 62.9698H104.673C104.673 62.9698 104.76 62.9698 104.864 62.9871C105.522 63.0564 106.024 63.6278 106.024 64.3031C106.024 64.9784 105.522 65.5325 104.881 65.6191C104.846 65.6191 104.829 65.6364 104.795 65.6364L103.201 65.6711H96.6214C95.9461 65.6711 95.3919 66.2425 95.3919 66.9351V72.6148C95.3919 73.3074 95.9461 73.8789 96.6214 73.8789H105.747C110.561 73.8789 113.989 70.381 113.989 65.4979V41.6884C113.937 40.9957 113.383 40.4243 112.691 40.4243Z" fill="#23346B"/>
<path fill-rule="evenodd" clip-rule="evenodd" d="M58.6646 50.8486V54.3637C58.6646 55.1083 58.0758 55.697 57.3486 55.697H56.8291C56.8118 55.697 56.8118 55.697 56.7944 55.697H53.8161V48.6667H57.3659C58.0931 48.6667 58.6819 49.2555 58.6819 50.0001V50.8486H58.6646ZM59.1667 40.4243H52.5347C52.5001 40.4243 52.4828 40.4243 52.4654 40.4243C52.4481 40.4243 52.4481 40.4243 52.4308 40.4243H46.9589C46.2836 40.4243 45.7468 40.9784 45.7468 41.6538V47.2295C45.7468 47.2468 45.7468 47.2468 45.7468 47.2641C45.7468 47.2988 45.7468 47.3161 45.7468 47.3507V72.5802C45.7468 73.2728 46.249 73.8269 46.8724 73.8442H52.552C53.2273 73.8442 53.7815 73.2901 53.7815 72.5802L53.7988 63.9395H59.1321C63.5996 63.9395 66.7165 60.788 66.7165 56.1992V48.1819C66.7512 43.5932 63.6343 40.4243 59.1667 40.4243Z" fill="#23346B"/>
<path fill-rule="evenodd" clip-rule="evenodd" d="M81.8333 64.2166V65.0997C81.8333 65.1689 81.816 65.2382 81.816 65.3075C81.7987 65.3767 81.7814 65.4287 81.7641 65.4979C81.5909 66.0001 81.1061 66.3464 80.5173 66.3464H78.197C77.4697 66.3464 76.8809 65.7923 76.8809 65.0997V64.0261C76.8809 64.0088 76.8809 63.9914 76.8809 63.9914V61.1343V60.2512C76.8809 59.5585 77.4697 59.0044 78.197 59.0044H80.5173C81.2446 59.0044 81.8333 59.5585 81.8333 60.2512V64.2166ZM80.9502 40.459H73.2099C72.5173 40.459 71.9632 40.9958 71.9632 41.6365V43.8529C71.9632 43.8702 71.9632 43.8876 71.9632 43.9049C71.9632 43.9222 71.9632 43.9395 71.9632 43.9568V46.9871C71.9632 47.6798 72.5519 48.2339 73.2792 48.2339H76.0151C76.0325 48.2339 76.0325 48.2339 76.0498 48.2339H80.6558C81.2446 48.3205 81.6948 48.7534 81.7641 49.4287V50.156C81.6948 50.7966 81.2446 51.2642 80.6905 51.3161H77.0368C72.171 51.3161 68.7251 54.6062 68.7251 59.2295V65.8443C68.7251 70.433 71.7035 73.7057 76.5173 73.7057H83.3918C83.4437 73.7057 83.4783 73.7057 83.5303 73.7057C83.5476 73.7057 83.5649 73.7057 83.5822 73.7057H86.6472C88.4654 73.7057 89.9372 72.3031 89.9372 70.5715V48.9958C89.9199 43.7663 87.2706 40.459 80.9502 40.459Z" fill="#23346B"/>
</g>
<defs>
<clipPath id="clip0_1_77">
<rect width="125.247" height="40" fill="white" transform="translate(45.7468 34)"/>
</clipPath>
</defs>
</svg>
