<svg width="218" height="108" viewBox="0 0 218 108" fill="none" xmlns="http://www.w3.org/2000/svg">
<rect x="0.644531" width="216.548" height="108" rx="16" fill="white"/>
<g clip-path="url(#clip0_1_88)">
<path d="M149.944 40.055L144.214 40.053C143.589 40.053 143.082 40.5596 143.082 41.1846L143.082 41.9839H143.479C146.066 41.9839 147.028 42.4106 147.028 44.7672V48.1173L149.941 48.1183C150.566 48.1187 151.072 47.6124 151.072 46.9874L151.074 41.1869C151.074 40.5619 150.568 40.0554 149.944 40.055ZM118.673 49.0606C118.408 48.7287 117.908 48.6828 117.407 48.6828H117.031C115.782 48.6828 115.292 49.068 115.016 50.2664L111.546 64.692C111.112 66.4648 110.504 66.7888 109.462 66.7888C108.187 66.7888 107.677 66.4845 107.168 64.685L103.237 50.2594C102.912 49.0513 102.432 48.6828 101.183 48.6828H100.848C100.344 48.6828 99.8417 48.7293 99.584 49.0656C99.3258 49.4022 99.413 49.9048 99.546 50.3988L103.518 64.9494C104.264 67.7341 105.149 70.0391 108.459 70.0391C109.077 70.0391 109.648 69.9533 110.123 69.793C109.119 72.9499 108.098 74.3422 105.087 74.6515C104.476 74.7024 104.079 74.7899 103.858 75.0866C103.628 75.3943 103.68 75.835 103.762 76.2285L103.845 76.6017C104.025 77.4645 104.331 77.9993 105.3 77.9993C105.401 77.9993 105.511 77.994 105.628 77.984C110.125 77.6897 112.534 75.2689 113.943 69.6287L118.754 50.3885C118.868 49.8948 118.937 49.3923 118.673 49.0606ZM94.4776 60.1438V63.0558C94.4776 65.4297 93.5975 66.8041 89.0985 66.8041C86.1262 66.8041 84.6814 65.7284 84.6814 63.5159C84.6814 61.0894 86.1309 60.1438 89.8512 60.1438H94.4776ZM89.0985 48.0704C86.6458 48.0704 85.1088 48.3781 84.5257 48.4949C83.4936 48.719 83.0619 49.0024 83.0619 50.1762V50.5108C83.0619 50.9709 83.13 51.2895 83.2761 51.5137C83.446 51.7748 83.7201 51.9072 84.0906 51.9072C84.2712 51.9072 84.4808 51.8769 84.7306 51.8144C85.3203 51.667 87.2046 51.3623 89.2658 51.3623C92.9679 51.3623 94.4776 52.3878 94.4776 54.9014V57.1446H89.8093C83.8082 57.1446 81.0129 59.1689 81.0129 63.5159C81.0129 67.7321 83.8994 70.0541 89.1404 70.0541C95.3687 70.0541 98.146 67.9347 98.146 63.1812V54.9014C98.146 50.305 95.1867 48.0704 89.0985 48.0704ZM77.3338 50.8591C77.3338 54.3206 76.4501 56.1966 71.7874 56.1966H64.6102V47.2628C64.6102 46.0242 65.0709 45.5635 66.3096 45.5635H71.7874C75.3002 45.5635 77.3338 46.4303 77.3338 50.8591ZM71.7874 41.9789H65.5984C62.2912 41.9789 60.8164 43.4537 60.8164 46.7612V68.0038C60.8164 69.2814 61.2265 69.6916 62.5044 69.6916H62.9225C64.2001 69.6916 64.6102 69.2814 64.6102 68.0038V59.7393H71.7874C78.1597 59.7393 81.1277 56.9174 81.1277 50.8591C81.1277 44.8005 78.1597 41.9789 71.7874 41.9789ZM150.501 34.0686L147.611 34.0676C147.296 34.0672 147.04 33.8118 147.04 33.4965L147.041 30.5704C147.042 30.2551 147.298 30 147.613 30L150.503 30.001C150.818 30.001 151.073 30.2568 151.073 30.5718L151.072 33.4978C151.072 33.8131 150.817 34.0686 150.501 34.0686ZM156.172 40.0587L151.916 40.057C151.452 40.057 151.076 39.6805 151.076 39.2165L151.078 34.9084C151.078 34.4441 151.455 34.0679 151.919 34.0679L156.174 34.0696C156.638 34.0696 157.014 34.4461 157.014 34.9101L157.013 39.2185C157.013 39.6825 156.636 40.0587 156.172 40.0587ZM144.211 48.1167C143.586 48.1167 143.08 47.6101 143.08 46.9851L143.082 41.9839H142.665C140.077 41.9839 139.115 42.411 139.115 44.7675V50.282C139.115 50.2937 139.114 50.3053 139.114 50.3169V51.5257C139.113 51.5676 139.11 51.6065 139.11 51.6497V59.3548C139.11 60.2958 138.929 61.0452 138.555 61.6272C137.849 62.7142 136.453 63.2082 134.218 63.2112C131.985 63.2082 130.588 62.7146 129.883 61.6286C129.508 61.0462 129.326 60.2965 129.326 59.3548V51.6497C129.326 51.6065 129.324 51.5676 129.323 51.5257V50.3169C129.323 50.3053 129.322 50.2937 129.321 50.282V44.7675C129.321 42.411 128.359 41.9839 125.772 41.9839H124.957C122.37 41.9839 121.408 42.411 121.408 44.7675V59.3548C121.408 61.7014 121.937 63.6881 122.96 65.2897C124.934 68.393 128.76 70.0458 134.198 70.0458C134.205 70.0458 134.211 70.0455 134.218 70.0455C134.225 70.0455 134.231 70.0458 134.238 70.0458C139.677 70.0458 143.502 68.393 145.477 65.2897C146.499 63.6881 147.028 61.7014 147.028 59.3548V48.1173L144.211 48.1167Z" fill="#A6C307"/>
</g>
<defs>
<clipPath id="clip0_1_88">
<rect width="96.1996" height="48" fill="white" transform="translate(60.8188 30)"/>
</clipPath>
</defs>
</svg>
