<svg width="376" height="234" viewBox="0 0 376 234" fill="none" xmlns="http://www.w3.org/2000/svg">
<rect x="0.5" y="0.5" width="375" height="233" rx="23.5" fill="#EBEEF2"/>
<rect x="0.5" y="0.5" width="375" height="233" rx="23.5" stroke="#EAEBEF"/>
<path d="M46.04 44.032H49.256C48.296 46.84 45.608 49.336 41.504 49.336C36.416 49.336 33.008 45.52 33.008 40.432C33.008 35.368 36.344 31.504 41.552 31.504C45.656 31.504 48.44 33.76 49.328 37H45.992C45.2 35.2 43.64 34.12 41.528 34.12C38.12 34.12 36.152 36.88 36.152 40.432C36.152 44.008 38.216 46.72 41.624 46.72C43.88 46.72 45.2 45.496 46.04 44.032ZM54.6314 31.84V35.32C54.6314 36.256 54.6074 36.856 54.5834 37.816C55.3754 36.76 56.5514 35.992 58.3994 35.992C61.3034 35.992 62.9594 38.008 62.9594 41.104V49H60.0554V42.52C60.0554 40.024 59.4794 38.44 57.4874 38.44C55.4954 38.44 54.6314 39.928 54.6314 42.04V49H51.7034V31.84H54.6314ZM66.1878 36.4H69.1158V49H66.1878V36.4ZM66.1398 34.576V31.84H69.1398V34.576H66.1398ZM84.2531 43.432L74.6051 43.408C74.7971 45.472 76.1891 46.96 78.2291 46.96C79.6691 46.96 80.5571 46.36 81.1091 45.4H84.0611C83.2931 47.704 81.2051 49.384 78.1571 49.384C74.2211 49.384 71.6771 46.6 71.6771 42.664C71.6771 38.824 74.2691 35.968 78.1091 35.968C82.1171 35.968 84.2771 38.968 84.2771 42.64C84.2771 43.096 84.2531 43.36 84.2531 43.432ZM74.7011 41.32H81.3491C81.1571 39.592 79.9811 38.248 78.0851 38.248C76.2611 38.248 74.9651 39.304 74.7011 41.32ZM87.2253 49V38.584H85.5693V36.4H87.2253V35.536C87.2253 33.232 88.8093 31.624 91.3053 31.624C91.6893 31.624 91.8813 31.624 92.2413 31.696V34.048C92.0493 34.024 91.8573 34 91.6893 34C90.7533 34 90.1533 34.456 90.1533 35.416V36.4H92.2413V38.584H90.1533V49H87.2253ZM100.345 49V31.84H110.881V34.552H103.369V38.92H110.305V41.608H103.369V46.336H111.049V49H100.345ZM115.636 49H112.3C112.948 48.16 115.468 44.56 116.86 42.544L112.756 36.4H116.116C116.572 37.096 117.556 38.752 118.564 40.336C119.548 38.776 120.124 37.888 121.036 36.4H124.3L120.196 42.496C121.468 44.344 123.484 47.176 124.78 49H121.348C120.46 47.56 119.572 46.192 118.54 44.56C117.58 46.048 116.404 47.848 115.636 49ZM137.902 43.432L128.254 43.408C128.446 45.472 129.838 46.96 131.878 46.96C133.318 46.96 134.206 46.36 134.758 45.4H137.71C136.942 47.704 134.854 49.384 131.806 49.384C127.87 49.384 125.326 46.6 125.326 42.664C125.326 38.824 127.918 35.968 131.758 35.968C135.766 35.968 137.926 38.968 137.926 42.64C137.926 43.096 137.902 43.36 137.902 43.432ZM128.35 41.32H134.998C134.806 39.592 133.63 38.248 131.734 38.248C129.91 38.248 128.614 39.304 128.35 41.32ZM149.056 44.968H151.936C151.216 47.488 149.248 49.384 146.008 49.384C142.024 49.384 139.576 46.552 139.576 42.688C139.576 38.872 142.144 35.968 146.056 35.968C149.32 35.968 151.384 37.912 151.96 40.576H148.912C148.408 39.232 147.544 38.416 146.008 38.416C143.896 38.416 142.576 40.192 142.576 42.64C142.576 45.232 143.896 46.96 146.128 46.96C147.568 46.96 148.576 46.192 149.056 44.968ZM162.735 49V48.112V47.2C161.991 48.52 160.719 49.336 158.823 49.336C155.967 49.336 154.263 47.656 154.263 43.84V36.4H157.191V43.12C157.191 45.352 157.767 46.912 159.783 46.912C162.063 46.912 162.567 44.968 162.567 43V36.4H165.495V47.104C165.495 47.752 165.495 48.4 165.519 49H162.735ZM172.372 32.992V36.4H174.724V38.584H172.372V45.472C172.372 46.648 172.924 47.032 173.884 47.032C174.124 47.032 174.316 47.008 174.484 46.984V49.144C174.22 49.216 173.908 49.24 173.356 49.24C170.98 49.24 169.444 48.472 169.444 45.976V38.584H167.548V36.4H169.444V32.992H172.372ZM177.024 36.4H179.952V49H177.024V36.4ZM176.976 34.576V31.84H179.976V34.576H176.976ZM189.425 49H186.689C185.081 44.896 183.473 40.504 181.865 36.4H185.081L186.713 41.392C187.169 42.856 187.529 43.72 188.105 45.52H188.153C188.681 43.768 188.993 43.072 189.617 41.104L191.153 36.4H194.273L189.425 49ZM207.581 43.432L197.933 43.408C198.125 45.472 199.517 46.96 201.557 46.96C202.997 46.96 203.885 46.36 204.437 45.4H207.389C206.621 47.704 204.533 49.384 201.485 49.384C197.549 49.384 195.005 46.6 195.005 42.664C195.005 38.824 197.597 35.968 201.437 35.968C205.445 35.968 207.605 38.968 207.605 42.64C207.605 43.096 207.581 43.36 207.581 43.432ZM198.029 41.32H204.677C204.485 39.592 203.309 38.248 201.413 38.248C199.589 38.248 198.293 39.304 198.029 41.32ZM223.921 31.504C229.033 31.504 232.585 35.224 232.585 40.432C232.585 45.616 229.129 49.336 223.945 49.336C218.809 49.336 215.305 45.616 215.305 40.432C215.305 35.272 218.833 31.504 223.921 31.504ZM223.897 34.12C220.489 34.12 218.449 36.76 218.449 40.408C218.449 44.008 220.513 46.72 223.921 46.72C227.305 46.72 229.417 44.032 229.417 40.408C229.417 36.736 227.353 34.12 223.897 34.12ZM235.866 49V38.584H234.21V36.4H235.866V35.536C235.866 33.232 237.45 31.624 239.946 31.624C240.33 31.624 240.522 31.624 240.882 31.696V34.048C240.69 34.024 240.498 34 240.33 34C239.394 34 238.794 34.456 238.794 35.416V36.4H240.882V38.584H238.794V49H235.866ZM243.553 49V38.584H241.897V36.4H243.553V35.536C243.553 33.232 245.137 31.624 247.633 31.624C248.017 31.624 248.209 31.624 248.569 31.696V34.048C248.377 34.024 248.185 34 248.017 34C247.081 34 246.481 34.456 246.481 35.416V36.4H248.569V38.584H246.481V49H243.553ZM250.201 36.4H253.129V49H250.201V36.4ZM250.153 34.576V31.84H253.153V34.576H250.153ZM265.188 44.968H268.068C267.348 47.488 265.38 49.384 262.14 49.384C258.156 49.384 255.708 46.552 255.708 42.688C255.708 38.872 258.276 35.968 262.188 35.968C265.452 35.968 267.516 37.912 268.092 40.576H265.044C264.54 39.232 263.676 38.416 262.14 38.416C260.028 38.416 258.708 40.192 258.708 42.64C258.708 45.232 260.028 46.96 262.26 46.96C263.7 46.96 264.708 46.192 265.188 44.968ZM282.3 43.432L272.652 43.408C272.844 45.472 274.236 46.96 276.276 46.96C277.716 46.96 278.604 46.36 279.156 45.4H282.108C281.34 47.704 279.252 49.384 276.204 49.384C272.268 49.384 269.724 46.6 269.724 42.664C269.724 38.824 272.316 35.968 276.156 35.968C280.164 35.968 282.324 38.968 282.324 42.64C282.324 43.096 282.3 43.36 282.3 43.432ZM272.748 41.32H279.396C279.204 39.592 278.028 38.248 276.132 38.248C274.308 38.248 273.012 39.304 272.748 41.32ZM284.742 36.376H287.502V37.24C287.502 37.528 287.502 37.816 287.478 38.08C287.934 36.808 289.086 36.088 290.526 36.088C290.838 36.088 291.054 36.112 291.222 36.136V38.92C291.006 38.848 290.67 38.824 290.382 38.824C288.078 38.824 287.694 40.456 287.694 43.048V49H284.766V38.656C284.766 37.864 284.766 37.144 284.742 36.376Z" fill="#052761"/>
<path opacity="0.72" d="M35.456 78H33.566V65.13H35.456V70.584H41.432V65.13H43.304V78H41.432V72.186H35.456V78ZM54.6806 73.752H47.2826C47.3366 75.408 48.4526 76.722 50.2526 76.722C51.5486 76.722 52.1786 76.11 52.6646 75.3H54.4826C53.9606 77.01 52.4306 78.234 50.1806 78.234C47.2646 78.234 45.4466 76.272 45.4466 73.32C45.4466 70.368 47.3546 68.28 50.1806 68.28C53.2586 68.28 54.6806 70.62 54.6806 73.158V73.752ZM47.3546 72.312H52.7906C52.6286 70.8 51.7106 69.756 50.1446 69.756C48.6506 69.756 47.5526 70.728 47.3546 72.312ZM64.3626 78H62.6526C62.5986 77.622 62.5806 77.406 62.5626 76.704C61.8426 77.73 60.8886 78.18 59.3766 78.18C57.3966 78.18 55.9566 77.208 55.9566 75.444C55.9566 73.428 57.9006 72.744 60.4206 72.402C61.0506 72.312 61.7346 72.24 62.3646 72.186C62.3646 70.278 61.5726 69.738 60.3306 69.738C58.9626 69.738 58.3146 70.368 58.1886 71.502H56.4066C56.4966 69.486 58.1166 68.298 60.3666 68.298C62.3826 68.298 64.1286 68.964 64.1286 72.654V74.49C64.1286 76.02 64.2006 77.136 64.3626 78ZM62.4006 73.5C59.3226 73.788 57.9186 74.13 57.9186 75.426C57.9186 76.308 58.6386 76.866 59.7906 76.866C61.5006 76.866 62.3826 75.858 62.3826 74.004V73.716C62.3826 73.626 62.3826 73.554 62.4006 73.5ZM66.7141 78V65.13H68.5321V78H66.7141ZM73.498 65.994V68.55H75.262V69.954H73.498V75.624C73.498 76.542 73.948 76.794 74.65 76.794C74.776 76.794 74.974 76.776 75.1 76.758V78.108C74.83 78.162 74.632 78.18 74.398 78.18C72.724 78.18 71.662 77.622 71.662 75.732V69.954H70.24V68.55H71.662V65.994H73.498ZM77.0308 65.13H78.8488V68.55C78.8488 69 78.8308 69.45 78.8308 69.792C79.1728 69.144 80.1448 68.28 81.8188 68.28C83.9788 68.28 85.1308 69.738 85.1308 72.132V78H83.2948V72.888C83.2948 71.016 82.6828 69.828 81.1888 69.828C79.7308 69.828 78.8488 71.052 78.8488 72.492V78H77.0308V65.13ZM94.326 74.976H96.216C95.73 76.848 94.254 78.234 91.86 78.234C88.89 78.234 87.054 76.11 87.054 73.248C87.054 70.422 88.944 68.298 91.878 68.298C94.326 68.298 95.802 69.666 96.234 71.664H94.362C93.948 70.512 93.048 69.81 91.806 69.81C90.024 69.81 88.98 71.268 88.98 73.266C88.98 75.372 90.006 76.722 91.806 76.722C93.03 76.722 93.912 76.074 94.326 74.976ZM105.9 78H104.19C104.136 77.622 104.118 77.406 104.1 76.704C103.38 77.73 102.426 78.18 100.914 78.18C98.9337 78.18 97.4937 77.208 97.4937 75.444C97.4937 73.428 99.4377 72.744 101.958 72.402C102.588 72.312 103.272 72.24 103.902 72.186C103.902 70.278 103.11 69.738 101.868 69.738C100.5 69.738 99.8517 70.368 99.7257 71.502H97.9437C98.0337 69.486 99.6537 68.298 101.904 68.298C103.92 68.298 105.666 68.964 105.666 72.654V74.49C105.666 76.02 105.738 77.136 105.9 78ZM103.938 73.5C100.86 73.788 99.4557 74.13 99.4557 75.426C99.4557 76.308 100.176 76.866 101.328 76.866C103.038 76.866 103.92 75.858 103.92 74.004V73.716C103.92 73.626 103.92 73.554 103.938 73.5ZM108.161 68.55H109.907V69.756C110.213 68.874 111.113 68.316 112.193 68.316C112.427 68.316 112.535 68.334 112.661 68.352V70.008C112.499 69.954 112.229 69.954 112.031 69.954C110.321 69.954 109.997 71.214 109.997 73.104V78H108.179V69.396C108.179 69.126 108.179 68.838 108.161 68.55ZM122.69 73.752H115.292C115.346 75.408 116.462 76.722 118.262 76.722C119.558 76.722 120.188 76.11 120.674 75.3H122.492C121.97 77.01 120.44 78.234 118.19 78.234C115.274 78.234 113.456 76.272 113.456 73.32C113.456 70.368 115.364 68.28 118.19 68.28C121.268 68.28 122.69 70.62 122.69 73.158V73.752ZM115.364 72.312H120.8C120.638 70.8 119.72 69.756 118.154 69.756C116.66 69.756 115.562 70.728 115.364 72.312ZM129.42 78V65.13H131.31V78H129.42ZM135.977 68.55V69.828C136.463 69.018 137.399 68.28 138.983 68.28C141.161 68.28 142.295 69.738 142.295 72.186V78H140.459V72.87C140.459 70.998 139.847 69.828 138.353 69.828C136.841 69.828 136.013 71.052 136.013 72.546V78H134.195V69.27C134.195 69.036 134.195 68.784 134.177 68.55H135.977ZM153.506 78H151.814V76.668C151.256 77.514 150.248 78.216 148.61 78.216C146.018 78.216 144.218 76.2 144.218 73.248C144.218 70.386 145.946 68.262 148.664 68.262C150.14 68.262 151.184 69 151.706 69.774C151.688 69.432 151.688 69.126 151.688 68.838V65.13H153.506V78ZM148.988 69.792C147.206 69.792 146.18 71.25 146.18 73.266C146.18 75.372 147.188 76.722 148.97 76.722C150.77 76.722 151.778 75.354 151.778 73.266C151.778 71.25 150.734 69.792 148.988 69.792ZM162.306 78V76.65C161.82 77.46 160.884 78.234 159.3 78.234C157.086 78.234 156.024 76.902 156.024 74.436V68.55H157.842V73.752C157.842 75.624 158.436 76.722 159.93 76.722C161.874 76.722 162.216 74.958 162.216 72.888V68.55H164.034V77.298C164.034 77.532 164.034 77.766 164.052 78H162.306ZM165.942 75.12H167.742C168.048 76.128 168.714 76.74 170.028 76.74C171.108 76.74 171.882 76.254 171.882 75.408C171.882 74.526 170.982 74.292 169.65 73.968L168.984 73.788C167.418 73.41 166.248 72.708 166.248 71.07C166.248 69.396 167.76 68.298 169.866 68.298C171.954 68.298 173.322 69.198 173.538 71.052H171.81C171.54 70.206 170.91 69.738 169.812 69.738C168.66 69.738 168.102 70.206 168.102 70.908C168.102 71.682 168.66 71.898 169.812 72.24L170.82 72.528C172.71 73.068 173.7 73.644 173.7 75.228C173.7 77.046 172.134 78.216 169.974 78.216C167.67 78.216 166.32 77.226 165.942 75.12ZM177.982 65.994V68.55H179.746V69.954H177.982V75.624C177.982 76.542 178.432 76.794 179.134 76.794C179.26 76.794 179.458 76.776 179.584 76.758V78.108C179.314 78.162 179.116 78.18 178.882 78.18C177.208 78.18 176.146 77.622 176.146 75.732V69.954H174.724V68.55H176.146V65.994H177.982ZM181.497 68.55H183.243V69.756C183.549 68.874 184.449 68.316 185.529 68.316C185.763 68.316 185.871 68.334 185.997 68.352V70.008C185.835 69.954 185.565 69.954 185.367 69.954C183.657 69.954 183.333 71.214 183.333 73.104V78H181.515V69.396C181.515 69.126 181.515 68.838 181.497 68.55ZM193.771 68.55H195.751C194.095 72.78 192.277 77.064 190.693 81.24H188.803C189.253 80.178 189.757 79.026 190.171 78L186.553 68.55H188.641L190.387 73.698C190.693 74.616 190.909 75.192 191.143 75.966H191.179C191.467 75.084 191.647 74.544 191.971 73.644L193.771 68.55Z" fill="#2E2E38"/>
<g opacity="0.72" clip-path="url(#clip0_1_145)">
<path d="M49.4973 110.333C49.4973 116.167 41.9988 121.167 41.9988 121.167C41.9988 121.167 34.5002 116.167 34.5002 110.333C34.5002 108.344 35.2903 106.437 36.6965 105.03C38.1028 103.624 40.01 102.833 41.9988 102.833C43.9875 102.833 45.8948 103.624 47.301 105.03C48.7073 106.437 49.4973 108.344 49.4973 110.333Z" stroke="#2E2E38" stroke-width="1.6" stroke-linecap="round" stroke-linejoin="round"/>
<path d="M41.9988 112.833C43.3792 112.833 44.4983 111.714 44.4983 110.333C44.4983 108.952 43.3792 107.833 41.9988 107.833C40.6183 107.833 39.4993 108.952 39.4993 110.333C39.4993 111.714 40.6183 112.833 41.9988 112.833Z" stroke="#2E2E38" stroke-width="1.6" stroke-linecap="round" stroke-linejoin="round"/>
</g>
<path opacity="0.72" d="M61.5621 118.5V105.63H64.6221L66.9081 112.668L67.4481 114.378L67.7361 115.332L68.0061 116.196H68.0241L68.3121 115.296L68.6361 114.288L68.9421 113.334L69.2121 112.542L71.4801 105.63H74.4321V118.5H72.5961V111.858V110.742L72.6141 109.5C72.6321 108.654 72.6501 107.88 72.6501 107.358H72.6321C72.4521 108.006 71.8221 109.932 71.2461 111.714L68.9601 118.5H66.9621L64.2441 110.418C63.8301 109.176 63.5961 108.222 63.3621 107.358H63.3441C63.3621 108.42 63.3801 109.878 63.3801 111.678V118.5H61.5621ZM83.4802 118.5V117.15C82.9942 117.96 82.0582 118.734 80.4742 118.734C78.2602 118.734 77.1982 117.402 77.1982 114.936V109.05H79.0162V114.252C79.0162 116.124 79.6102 117.222 81.1042 117.222C83.0482 117.222 83.3902 115.458 83.3902 113.388V109.05H85.2082V117.798C85.2082 118.032 85.2082 118.266 85.2262 118.5H83.4802ZM89.6175 109.05V110.328C90.1035 109.518 90.9675 108.78 92.5875 108.78C94.0095 108.78 94.9455 109.392 95.4315 110.526C95.9895 109.734 96.8355 108.78 98.6895 108.78C100.939 108.78 102.001 110.256 102.001 112.686V118.5H100.165V113.406C100.165 111.48 99.6075 110.328 98.1135 110.328C96.6375 110.328 95.8275 111.57 95.8275 113.064V118.5H93.9915V113.406C93.9915 111.48 93.4515 110.328 91.9395 110.328C90.4635 110.328 89.6535 111.57 89.6535 113.082V118.5H87.8355V109.788C87.8355 109.554 87.8355 109.302 87.8175 109.05H89.6175ZM104.517 118.5V105.63H106.353V109.32C106.353 109.608 106.353 109.914 106.335 110.256C106.893 109.482 107.901 108.762 109.413 108.762C112.077 108.762 113.823 110.886 113.823 113.748C113.823 116.7 112.023 118.716 109.431 118.716C107.793 118.716 106.785 118.014 106.227 117.168V118.5H104.517ZM109.053 110.292C107.307 110.292 106.245 111.75 106.245 113.766C106.245 115.854 107.271 117.222 109.071 117.222C110.853 117.222 111.861 115.872 111.861 113.766C111.861 111.75 110.835 110.292 109.053 110.292ZM123.595 118.5H121.885C121.831 118.122 121.813 117.906 121.795 117.204C121.075 118.23 120.121 118.68 118.609 118.68C116.629 118.68 115.189 117.708 115.189 115.944C115.189 113.928 117.133 113.244 119.653 112.902C120.283 112.812 120.967 112.74 121.597 112.686C121.597 110.778 120.805 110.238 119.563 110.238C118.195 110.238 117.547 110.868 117.421 112.002H115.639C115.729 109.986 117.349 108.798 119.599 108.798C121.615 108.798 123.361 109.464 123.361 113.154V114.99C123.361 116.52 123.433 117.636 123.595 118.5ZM121.633 114C118.555 114.288 117.151 114.63 117.151 115.926C117.151 116.808 117.871 117.366 119.023 117.366C120.733 117.366 121.615 116.358 121.615 114.504V114.216C121.615 114.126 121.615 114.054 121.633 114ZM125.875 109.05H127.693V118.5H125.875V109.05ZM125.839 107.682V105.63H127.729V107.682H125.839Z" fill="#2E2E38"/>
<g opacity="0.72" clip-path="url(#clip1_1_145)">
<path d="M220.665 107.833H207.332C206.411 107.833 205.665 108.579 205.665 109.499V117.833C205.665 118.753 206.411 119.499 207.332 119.499H220.665C221.586 119.499 222.332 118.753 222.332 117.833V109.499C222.332 108.579 221.586 107.833 220.665 107.833Z" stroke="#2E2E38" stroke-width="1.6" stroke-linecap="round" stroke-linejoin="round"/>
<path d="M217.332 119.499V106.166C217.332 105.724 217.156 105.3 216.844 104.987C216.531 104.675 216.107 104.499 215.665 104.499H212.332C211.89 104.499 211.466 104.675 211.153 104.987C210.841 105.3 210.665 105.724 210.665 106.166V119.499" stroke="#2E2E38" stroke-width="1.6" stroke-linecap="round" stroke-linejoin="round"/>
</g>
<path opacity="0.72" d="M237.168 111.552V111.516C236.322 111.192 235.224 110.346 235.224 108.636C235.224 106.818 236.646 105.378 239.184 105.378C241.722 105.378 243.144 106.818 243.144 108.636C243.144 110.346 242.046 111.192 241.2 111.516V111.552C242.856 112.2 243.684 113.244 243.684 114.99C243.684 117.258 242.01 118.77 239.184 118.77C236.358 118.77 234.666 117.258 234.666 114.972C234.666 113.226 235.566 112.146 237.168 111.552ZM239.184 112.452C237.546 112.452 236.592 113.388 236.592 114.828C236.592 116.196 237.51 117.186 239.184 117.186C240.822 117.186 241.758 116.196 241.758 114.828C241.758 113.388 240.786 112.452 239.184 112.452ZM239.184 107.052C237.87 107.052 237.078 107.79 237.078 108.924C237.078 110.022 237.888 110.796 239.184 110.796C240.48 110.796 241.308 110.04 241.308 108.906C241.308 107.826 240.48 107.052 239.184 107.052ZM245.542 112.722V111.192H250.438V112.722H245.542ZM256.761 118.5V110.346C256.761 109.914 256.743 109.482 256.761 109.032C256.509 109.05 256.257 109.05 256.023 109.05H253.683V107.682C255.897 107.628 256.851 107.07 257.049 105.63H258.633V118.5H256.761ZM267.15 105.378C270.858 105.378 271.704 108.636 271.704 112.092C271.704 115.908 270.75 118.77 267.15 118.77C263.532 118.77 262.614 115.908 262.614 112.092C262.614 108.636 263.46 105.378 267.15 105.378ZM267.15 106.908C265.08 106.908 264.648 109.284 264.648 112.092C264.648 115.116 265.152 117.258 267.15 117.258C269.166 117.258 269.652 115.116 269.652 112.092C269.652 109.266 269.238 106.908 267.15 106.908ZM280.615 118.5V113.514C279.175 110.85 277.753 108.294 276.313 105.63H278.455C279.103 106.854 279.751 108.096 280.651 109.842L281.641 111.714C281.929 111.138 282.199 110.724 284.845 105.63H286.861C285.421 108.294 283.945 110.85 282.487 113.514V118.5H280.615ZM287.187 109.05H288.933V110.256C289.239 109.374 290.139 108.816 291.219 108.816C291.453 108.816 291.561 108.834 291.687 108.852V110.508C291.525 110.454 291.255 110.454 291.057 110.454C289.347 110.454 289.023 111.714 289.023 113.604V118.5H287.205V109.896C287.205 109.626 287.205 109.338 287.187 109.05ZM292.584 115.62H294.384C294.69 116.628 295.356 117.24 296.67 117.24C297.75 117.24 298.524 116.754 298.524 115.908C298.524 115.026 297.624 114.792 296.292 114.468L295.626 114.288C294.06 113.91 292.89 113.208 292.89 111.57C292.89 109.896 294.402 108.798 296.508 108.798C298.596 108.798 299.964 109.698 300.18 111.552H298.452C298.182 110.706 297.552 110.238 296.454 110.238C295.302 110.238 294.744 110.706 294.744 111.408C294.744 112.182 295.302 112.398 296.454 112.74L297.462 113.028C299.352 113.568 300.342 114.144 300.342 115.728C300.342 117.546 298.776 118.716 296.616 118.716C294.312 118.716 292.962 117.726 292.584 115.62Z" fill="#2E2E38"/>
<rect x="32.5" y="154.5" width="143" height="47" rx="11.5" fill="#EBEEF2"/>
<rect x="32.5" y="154.5" width="143" height="47" rx="11.5" stroke="#052761"/>
<path d="M64.352 183.5H62.32C61.168 180.492 58.912 174.14 58.16 172.06H60.032L62.272 178.508C62.672 179.644 62.992 180.556 63.376 181.756H63.408C63.776 180.652 64.176 179.564 64.576 178.412L66.816 172.06H68.592L64.352 183.5ZM69.8555 175.1H71.4715V183.5H69.8555V175.1ZM69.8235 173.884V172.06H71.5035V173.884H69.8235ZM81.4886 179.724H74.9126C74.9606 181.196 75.9526 182.364 77.5526 182.364C78.7046 182.364 79.2646 181.82 79.6966 181.1H81.3126C80.8486 182.62 79.4886 183.708 77.4886 183.708C74.8966 183.708 73.2806 181.964 73.2806 179.34C73.2806 176.716 74.9766 174.86 77.4886 174.86C80.2246 174.86 81.4886 176.94 81.4886 179.196V179.724ZM74.9766 178.444H79.8086C79.6646 177.1 78.8486 176.172 77.4566 176.172C76.1286 176.172 75.1526 177.036 74.9766 178.444ZM82.195 175.1H83.923L85.251 179.836C85.427 180.46 85.571 181.02 85.779 181.852H85.827C86.003 181.036 86.179 180.444 86.371 179.692L87.523 175.1H89.251L90.067 178.348C90.323 179.42 90.579 180.588 90.915 181.852H90.947L91.427 180.06L91.571 179.564L92.851 175.1H94.515L91.843 183.5H89.923C89.491 181.996 88.723 178.876 88.387 177.292H88.339C87.699 180.044 87.011 182.236 86.691 183.5H84.851C83.939 180.764 83.091 177.852 82.195 175.1ZM99.8295 183.5V172.06H102.95C107.222 172.06 109.302 174.092 109.302 177.804C109.302 180.956 107.59 183.5 103.222 183.5H99.8295ZM101.526 173.516V182.076H102.822C105.83 182.076 107.477 180.956 107.477 177.804C107.477 174.972 105.878 173.5 102.982 173.5C102.678 173.5 102.342 173.516 102.038 173.516H101.526ZM118.864 179.724H112.288C112.336 181.196 113.328 182.364 114.928 182.364C116.08 182.364 116.64 181.82 117.072 181.1H118.688C118.224 182.62 116.864 183.708 114.864 183.708C112.272 183.708 110.656 181.964 110.656 179.34C110.656 176.716 112.352 174.86 114.864 174.86C117.6 174.86 118.864 176.94 118.864 179.196V179.724ZM112.352 178.444H117.184C117.04 177.1 116.224 176.172 114.832 176.172C113.504 176.172 112.528 177.036 112.352 178.444ZM122.606 172.828V175.1H124.174V176.348H122.606V181.388C122.606 182.204 123.006 182.428 123.63 182.428C123.742 182.428 123.918 182.412 124.03 182.396V183.596C123.79 183.644 123.614 183.66 123.406 183.66C121.918 183.66 120.974 183.164 120.974 181.484V176.348H119.71V175.1H120.974V172.828H122.606ZM132.626 183.5H131.106C131.058 183.164 131.042 182.972 131.026 182.348C130.386 183.26 129.538 183.66 128.194 183.66C126.434 183.66 125.154 182.796 125.154 181.228C125.154 179.436 126.882 178.828 129.122 178.524C129.682 178.444 130.29 178.38 130.85 178.332C130.85 176.636 130.146 176.156 129.042 176.156C127.826 176.156 127.25 176.716 127.138 177.724H125.554C125.634 175.932 127.074 174.876 129.074 174.876C130.866 174.876 132.418 175.468 132.418 178.748V180.38C132.418 181.74 132.482 182.732 132.626 183.5ZM130.882 179.5C128.146 179.756 126.898 180.06 126.898 181.212C126.898 181.996 127.538 182.492 128.562 182.492C130.082 182.492 130.866 181.596 130.866 179.948V179.692C130.866 179.612 130.866 179.548 130.882 179.5ZM134.652 175.1H136.268V183.5H134.652V175.1ZM134.62 173.884V172.06H136.3V173.884H134.62ZM138.67 183.5V172.06H140.286V183.5H138.67ZM142.044 180.94H143.644C143.916 181.836 144.508 182.38 145.676 182.38C146.636 182.38 147.324 181.948 147.324 181.196C147.324 180.412 146.524 180.204 145.34 179.916L144.748 179.756C143.356 179.42 142.316 178.796 142.316 177.34C142.316 175.852 143.66 174.876 145.532 174.876C147.388 174.876 148.604 175.676 148.796 177.324H147.26C147.02 176.572 146.46 176.156 145.484 176.156C144.46 176.156 143.964 176.572 143.964 177.196C143.964 177.884 144.46 178.076 145.484 178.38L146.38 178.636C148.06 179.116 148.94 179.628 148.94 181.036C148.94 182.652 147.548 183.692 145.628 183.692C143.58 183.692 142.38 182.812 142.044 180.94Z" fill="#052761"/>
<rect x="200" y="154" width="144" height="48" rx="12" fill="#052761"/>
<path d="M232.576 180.252H234.288C234.496 181.468 235.28 182.38 236.928 182.38C238.448 182.38 239.344 181.612 239.344 180.46C239.344 179.212 238.352 178.924 237.024 178.492L236.272 178.252C234.208 177.612 232.928 176.796 232.928 174.972C232.928 173.116 234.528 171.82 236.896 171.82C239.344 171.82 240.672 173.052 240.88 175.02H239.152C238.96 173.868 238.24 173.212 236.848 173.212C235.504 173.212 234.736 173.868 234.736 174.828C234.736 176.012 235.744 176.38 236.992 176.764L237.792 177.004C239.808 177.596 241.12 178.348 241.12 180.252C241.12 182.348 239.392 183.724 236.912 183.724C234.336 183.724 232.72 182.444 232.576 180.252ZM248.437 183.5V182.3C248.005 183.02 247.173 183.708 245.765 183.708C243.797 183.708 242.853 182.524 242.853 180.332V175.1H244.469V179.724C244.469 181.388 244.997 182.364 246.325 182.364C248.053 182.364 248.357 180.796 248.357 178.956V175.1H249.973V182.876C249.973 183.084 249.973 183.292 249.989 183.5H248.437ZM252.309 183.5V172.06H253.941V175.34C253.941 175.596 253.941 175.868 253.925 176.172C254.421 175.484 255.317 174.844 256.661 174.844C259.029 174.844 260.581 176.732 260.581 179.276C260.581 181.9 258.981 183.692 256.677 183.692C255.221 183.692 254.325 183.068 253.829 182.316V183.5H252.309ZM256.341 176.204C254.789 176.204 253.845 177.5 253.845 179.292C253.845 181.148 254.757 182.364 256.357 182.364C257.941 182.364 258.837 181.164 258.837 179.292C258.837 177.5 257.925 176.204 256.341 176.204ZM263.971 175.1V176.236C264.403 175.516 265.171 174.86 266.611 174.86C267.875 174.86 268.707 175.404 269.139 176.412C269.635 175.708 270.387 174.86 272.035 174.86C274.035 174.86 274.979 176.172 274.979 178.332V183.5H273.347V178.972C273.347 177.26 272.851 176.236 271.523 176.236C270.211 176.236 269.491 177.34 269.491 178.668V183.5H267.859V178.972C267.859 177.26 267.379 176.236 266.035 176.236C264.723 176.236 264.003 177.34 264.003 178.684V183.5H262.387V175.756C262.387 175.548 262.387 175.324 262.371 175.1H263.971ZM277.215 175.1H278.831V183.5H277.215V175.1ZM277.183 173.884V172.06H278.863V173.884H277.183ZM283.184 172.828V175.1H284.752V176.348H283.184V181.388C283.184 182.204 283.584 182.428 284.208 182.428C284.32 182.428 284.496 182.412 284.608 182.396V183.596C284.368 183.644 284.192 183.66 283.984 183.66C282.496 183.66 281.552 183.164 281.552 181.484V176.348H280.288V175.1H281.552V172.828H283.184ZM299.028 180.156H300.788C300.004 182.348 298.227 183.724 295.524 183.724C292.196 183.724 289.876 181.308 289.876 177.772C289.876 174.252 292.212 171.836 295.604 171.836C298.276 171.836 300.084 173.148 300.804 175.532H299.076C298.452 174.108 297.38 173.26 295.588 173.26C293.124 173.26 291.7 175.084 291.7 177.756C291.7 180.412 293.124 182.316 295.604 182.316C297.284 182.316 298.388 181.516 299.028 180.156ZM307.633 183.5H305.601C304.449 180.492 302.193 174.14 301.441 172.06H303.313L305.553 178.508C305.953 179.644 306.273 180.556 306.657 181.756H306.689C307.057 180.652 307.457 179.564 307.857 178.412L310.097 172.06H311.873L307.633 183.5Z" fill="white"/>
<defs>
<clipPath id="clip0_1_145">
<rect width="19.996" height="20" fill="white" transform="translate(32 102)"/>
</clipPath>
<clipPath id="clip1_1_145">
<rect width="20" height="20" fill="white" transform="translate(204 102)"/>
</clipPath>
</defs>
</svg>
