<svg width="376" height="234" viewBox="0 0 376 234" fill="none" xmlns="http://www.w3.org/2000/svg">
<rect x="0.5" y="0.5" width="375" height="233" rx="23.5" fill="#EBEEF2"/>
<rect x="0.5" y="0.5" width="375" height="233" rx="23.5" stroke="#EAEBEF"/>
<path d="M46.04 44.032H49.256C48.296 46.84 45.608 49.336 41.504 49.336C36.416 49.336 33.008 45.52 33.008 40.432C33.008 35.368 36.344 31.504 41.552 31.504C45.656 31.504 48.44 33.76 49.328 37H45.992C45.2 35.2 43.64 34.12 41.528 34.12C38.12 34.12 36.152 36.88 36.152 40.432C36.152 44.008 38.216 46.72 41.624 46.72C43.88 46.72 45.2 45.496 46.04 44.032ZM54.6314 31.84V35.32C54.6314 36.256 54.6074 36.856 54.5834 37.816C55.3754 36.76 56.5514 35.992 58.3994 35.992C61.3034 35.992 62.9594 38.008 62.9594 41.104V49H60.0554V42.52C60.0554 40.024 59.4794 38.44 57.4874 38.44C55.4954 38.44 54.6314 39.928 54.6314 42.04V49H51.7034V31.84H54.6314ZM66.1878 36.4H69.1158V49H66.1878V36.4ZM66.1398 34.576V31.84H69.1398V34.576H66.1398ZM84.2531 43.432L74.6051 43.408C74.7971 45.472 76.1891 46.96 78.2291 46.96C79.6691 46.96 80.5571 46.36 81.1091 45.4H84.0611C83.2931 47.704 81.2051 49.384 78.1571 49.384C74.2211 49.384 71.6771 46.6 71.6771 42.664C71.6771 38.824 74.2691 35.968 78.1091 35.968C82.1171 35.968 84.2771 38.968 84.2771 42.64C84.2771 43.096 84.2531 43.36 84.2531 43.432ZM74.7011 41.32H81.3491C81.1571 39.592 79.9811 38.248 78.0851 38.248C76.2611 38.248 74.9651 39.304 74.7011 41.32ZM87.2253 49V38.584H85.5693V36.4H87.2253V35.536C87.2253 33.232 88.8093 31.624 91.3053 31.624C91.6893 31.624 91.8813 31.624 92.2413 31.696V34.048C92.0493 34.024 91.8573 34 91.6893 34C90.7533 34 90.1533 34.456 90.1533 35.416V36.4H92.2413V38.584H90.1533V49H87.2253ZM102.831 49V34.552H98.5353V31.84H110.175V34.552H105.879V49H102.831ZM122.62 43.432L112.972 43.408C113.164 45.472 114.556 46.96 116.596 46.96C118.036 46.96 118.924 46.36 119.476 45.4H122.428C121.66 47.704 119.572 49.384 116.524 49.384C112.588 49.384 110.044 46.6 110.044 42.664C110.044 38.824 112.636 35.968 116.476 35.968C120.484 35.968 122.644 38.968 122.644 42.64C122.644 43.096 122.62 43.36 122.62 43.432ZM113.068 41.32H119.716C119.524 39.592 118.348 38.248 116.452 38.248C114.628 38.248 113.332 39.304 113.068 41.32ZM133.774 44.968H136.654C135.934 47.488 133.966 49.384 130.726 49.384C126.742 49.384 124.294 46.552 124.294 42.688C124.294 38.872 126.862 35.968 130.774 35.968C134.038 35.968 136.102 37.912 136.678 40.576H133.63C133.126 39.232 132.262 38.416 130.726 38.416C128.614 38.416 127.294 40.192 127.294 42.64C127.294 45.232 128.614 46.96 130.846 46.96C132.286 46.96 133.294 46.192 133.774 44.968ZM142.03 31.84V35.32C142.03 36.256 142.006 36.856 141.982 37.816C142.774 36.76 143.95 35.992 145.798 35.992C148.702 35.992 150.358 38.008 150.358 41.104V49H147.454V42.52C147.454 40.024 146.878 38.44 144.886 38.44C142.894 38.44 142.03 39.928 142.03 42.04V49H139.102V31.84H142.03ZM156.37 36.376V37.168C156.37 37.432 156.37 37.696 156.346 37.96C156.346 37.984 156.346 37.984 156.37 37.984C157.138 36.832 158.362 35.992 160.306 35.992C163.21 35.992 164.866 37.912 164.866 41.176V49H161.938V42.496C161.938 40.024 161.362 38.44 159.37 38.44C157.378 38.44 156.514 40 156.514 41.968V49H153.586V38.296C153.586 37.648 153.586 37.024 153.562 36.376H156.37ZM173.902 35.968C177.886 35.968 180.502 38.752 180.502 42.712C180.502 46.624 177.934 49.384 173.854 49.384C169.798 49.384 167.326 46.552 167.326 42.712C167.326 38.752 169.942 35.968 173.902 35.968ZM173.854 38.416C171.646 38.416 170.326 40.192 170.326 42.688C170.326 45.28 171.646 46.936 173.854 46.936C176.086 46.936 177.406 45.28 177.406 42.688C177.406 40.192 176.062 38.416 173.854 38.416ZM183.166 49V31.84H186.094V49H183.166ZM195.3 35.968C199.284 35.968 201.9 38.752 201.9 42.712C201.9 46.624 199.332 49.384 195.252 49.384C191.196 49.384 188.724 46.552 188.724 42.712C188.724 38.752 191.34 35.968 195.3 35.968ZM195.252 38.416C193.044 38.416 191.724 40.192 191.724 42.688C191.724 45.28 193.044 46.936 195.252 46.936C197.484 46.936 198.804 45.28 198.804 42.688C198.804 40.192 197.46 38.416 195.252 38.416ZM216.709 36.4V46.912C216.709 51.04 214.357 53.608 210.181 53.608C206.989 53.608 204.853 51.952 204.181 49.456H207.277C207.781 50.584 208.837 51.184 210.181 51.184C212.965 51.184 213.997 49.456 213.997 46.384H213.949C213.301 47.44 211.861 48.448 209.653 48.448C206.005 48.448 203.749 45.88 203.749 42.28C203.749 38.536 206.221 36.016 209.581 36.016C211.813 36.016 213.205 37.024 213.949 38.08C213.925 37.792 213.925 37.552 213.925 37.24V36.4H216.709ZM210.325 38.44C208.117 38.44 206.749 39.952 206.749 42.256C206.749 44.488 208.045 46.072 210.325 46.072C212.365 46.072 213.925 44.704 213.925 42.184C213.925 39.952 212.533 38.44 210.325 38.44ZM224.375 53.32H221.399L223.367 48.664C221.903 44.848 220.151 40.36 218.615 36.4H221.831C223.247 40.432 224.015 42.928 224.903 45.4C225.671 43.288 226.943 39.4 227.975 36.4H231.119C228.911 41.992 226.751 47.536 224.375 53.32ZM246.187 31.504C251.299 31.504 254.851 35.224 254.851 40.432C254.851 45.616 251.395 49.336 246.211 49.336C241.075 49.336 237.571 45.616 237.571 40.432C237.571 35.272 241.099 31.504 246.187 31.504ZM246.163 34.12C242.755 34.12 240.715 36.76 240.715 40.408C240.715 44.008 242.779 46.72 246.187 46.72C249.571 46.72 251.683 44.032 251.683 40.408C251.683 36.736 249.619 34.12 246.163 34.12ZM258.132 49V38.584H256.476V36.4H258.132V35.536C258.132 33.232 259.716 31.624 262.212 31.624C262.596 31.624 262.788 31.624 263.148 31.696V34.048C262.956 34.024 262.764 34 262.596 34C261.66 34 261.06 34.456 261.06 35.416V36.4H263.148V38.584H261.06V49H258.132ZM265.819 49V38.584H264.163V36.4H265.819V35.536C265.819 33.232 267.403 31.624 269.899 31.624C270.283 31.624 270.475 31.624 270.835 31.696V34.048C270.643 34.024 270.451 34 270.283 34C269.347 34 268.747 34.456 268.747 35.416V36.4H270.835V38.584H268.747V49H265.819ZM272.467 36.4H275.395V49H272.467V36.4ZM272.419 34.576V31.84H275.419V34.576H272.419ZM287.454 44.968H290.334C289.614 47.488 287.646 49.384 284.406 49.384C280.422 49.384 277.974 46.552 277.974 42.688C277.974 38.872 280.542 35.968 284.454 35.968C287.718 35.968 289.782 37.912 290.358 40.576H287.31C286.806 39.232 285.942 38.416 284.406 38.416C282.294 38.416 280.974 40.192 280.974 42.64C280.974 45.232 282.294 46.96 284.526 46.96C285.966 46.96 286.974 46.192 287.454 44.968ZM304.566 43.432L294.918 43.408C295.11 45.472 296.502 46.96 298.542 46.96C299.982 46.96 300.87 46.36 301.422 45.4H304.374C303.606 47.704 301.518 49.384 298.47 49.384C294.534 49.384 291.99 46.6 291.99 42.664C291.99 38.824 294.582 35.968 298.422 35.968C302.43 35.968 304.59 38.968 304.59 42.64C304.59 43.096 304.566 43.36 304.566 43.432ZM295.014 41.32H301.662C301.47 39.592 300.294 38.248 298.398 38.248C296.574 38.248 295.278 39.304 295.014 41.32ZM307.008 36.376H309.768V37.24C309.768 37.528 309.768 37.816 309.744 38.08C310.2 36.808 311.352 36.088 312.792 36.088C313.104 36.088 313.32 36.112 313.488 36.136V38.92C313.272 38.848 312.936 38.824 312.648 38.824C310.344 38.824 309.96 40.456 309.96 43.048V49H307.032V38.656C307.032 37.864 307.032 37.144 307.008 36.376Z" fill="#052761"/>
<path opacity="0.72" d="M35.456 78H33.566V65.13H35.456V70.584H41.432V65.13H43.304V78H41.432V72.186H35.456V78ZM54.6806 73.752H47.2826C47.3366 75.408 48.4526 76.722 50.2526 76.722C51.5486 76.722 52.1786 76.11 52.6646 75.3H54.4826C53.9606 77.01 52.4306 78.234 50.1806 78.234C47.2646 78.234 45.4466 76.272 45.4466 73.32C45.4466 70.368 47.3546 68.28 50.1806 68.28C53.2586 68.28 54.6806 70.62 54.6806 73.158V73.752ZM47.3546 72.312H52.7906C52.6286 70.8 51.7106 69.756 50.1446 69.756C48.6506 69.756 47.5526 70.728 47.3546 72.312ZM64.3626 78H62.6526C62.5986 77.622 62.5806 77.406 62.5626 76.704C61.8426 77.73 60.8886 78.18 59.3766 78.18C57.3966 78.18 55.9566 77.208 55.9566 75.444C55.9566 73.428 57.9006 72.744 60.4206 72.402C61.0506 72.312 61.7346 72.24 62.3646 72.186C62.3646 70.278 61.5726 69.738 60.3306 69.738C58.9626 69.738 58.3146 70.368 58.1886 71.502H56.4066C56.4966 69.486 58.1166 68.298 60.3666 68.298C62.3826 68.298 64.1286 68.964 64.1286 72.654V74.49C64.1286 76.02 64.2006 77.136 64.3626 78ZM62.4006 73.5C59.3226 73.788 57.9186 74.13 57.9186 75.426C57.9186 76.308 58.6386 76.866 59.7906 76.866C61.5006 76.866 62.3826 75.858 62.3826 74.004V73.716C62.3826 73.626 62.3826 73.554 62.4006 73.5ZM66.7141 78V65.13H68.5321V78H66.7141ZM73.498 65.994V68.55H75.262V69.954H73.498V75.624C73.498 76.542 73.948 76.794 74.65 76.794C74.776 76.794 74.974 76.776 75.1 76.758V78.108C74.83 78.162 74.632 78.18 74.398 78.18C72.724 78.18 71.662 77.622 71.662 75.732V69.954H70.24V68.55H71.662V65.994H73.498ZM77.0308 65.13H78.8488V68.55C78.8488 69 78.8308 69.45 78.8308 69.792C79.1728 69.144 80.1448 68.28 81.8188 68.28C83.9788 68.28 85.1308 69.738 85.1308 72.132V78H83.2948V72.888C83.2948 71.016 82.6828 69.828 81.1888 69.828C79.7308 69.828 78.8488 71.052 78.8488 72.492V78H77.0308V65.13ZM94.326 74.976H96.216C95.73 76.848 94.254 78.234 91.86 78.234C88.89 78.234 87.054 76.11 87.054 73.248C87.054 70.422 88.944 68.298 91.878 68.298C94.326 68.298 95.802 69.666 96.234 71.664H94.362C93.948 70.512 93.048 69.81 91.806 69.81C90.024 69.81 88.98 71.268 88.98 73.266C88.98 75.372 90.006 76.722 91.806 76.722C93.03 76.722 93.912 76.074 94.326 74.976ZM105.9 78H104.19C104.136 77.622 104.118 77.406 104.1 76.704C103.38 77.73 102.426 78.18 100.914 78.18C98.9337 78.18 97.4937 77.208 97.4937 75.444C97.4937 73.428 99.4377 72.744 101.958 72.402C102.588 72.312 103.272 72.24 103.902 72.186C103.902 70.278 103.11 69.738 101.868 69.738C100.5 69.738 99.8517 70.368 99.7257 71.502H97.9437C98.0337 69.486 99.6537 68.298 101.904 68.298C103.92 68.298 105.666 68.964 105.666 72.654V74.49C105.666 76.02 105.738 77.136 105.9 78ZM103.938 73.5C100.86 73.788 99.4557 74.13 99.4557 75.426C99.4557 76.308 100.176 76.866 101.328 76.866C103.038 76.866 103.92 75.858 103.92 74.004V73.716C103.92 73.626 103.92 73.554 103.938 73.5ZM108.161 68.55H109.907V69.756C110.213 68.874 111.113 68.316 112.193 68.316C112.427 68.316 112.535 68.334 112.661 68.352V70.008C112.499 69.954 112.229 69.954 112.031 69.954C110.321 69.954 109.997 71.214 109.997 73.104V78H108.179V69.396C108.179 69.126 108.179 68.838 108.161 68.55ZM122.69 73.752H115.292C115.346 75.408 116.462 76.722 118.262 76.722C119.558 76.722 120.188 76.11 120.674 75.3H122.492C121.97 77.01 120.44 78.234 118.19 78.234C115.274 78.234 113.456 76.272 113.456 73.32C113.456 70.368 115.364 68.28 118.19 68.28C121.268 68.28 122.69 70.62 122.69 73.158V73.752ZM115.364 72.312H120.8C120.638 70.8 119.72 69.756 118.154 69.756C116.66 69.756 115.562 70.728 115.364 72.312ZM129.42 78V65.13H131.31V78H129.42ZM135.977 68.55V69.828C136.463 69.018 137.399 68.28 138.983 68.28C141.161 68.28 142.295 69.738 142.295 72.186V78H140.459V72.87C140.459 70.998 139.847 69.828 138.353 69.828C136.841 69.828 136.013 71.052 136.013 72.546V78H134.195V69.27C134.195 69.036 134.195 68.784 134.177 68.55H135.977ZM153.506 78H151.814V76.668C151.256 77.514 150.248 78.216 148.61 78.216C146.018 78.216 144.218 76.2 144.218 73.248C144.218 70.386 145.946 68.262 148.664 68.262C150.14 68.262 151.184 69 151.706 69.774C151.688 69.432 151.688 69.126 151.688 68.838V65.13H153.506V78ZM148.988 69.792C147.206 69.792 146.18 71.25 146.18 73.266C146.18 75.372 147.188 76.722 148.97 76.722C150.77 76.722 151.778 75.354 151.778 73.266C151.778 71.25 150.734 69.792 148.988 69.792ZM162.306 78V76.65C161.82 77.46 160.884 78.234 159.3 78.234C157.086 78.234 156.024 76.902 156.024 74.436V68.55H157.842V73.752C157.842 75.624 158.436 76.722 159.93 76.722C161.874 76.722 162.216 74.958 162.216 72.888V68.55H164.034V77.298C164.034 77.532 164.034 77.766 164.052 78H162.306ZM165.942 75.12H167.742C168.048 76.128 168.714 76.74 170.028 76.74C171.108 76.74 171.882 76.254 171.882 75.408C171.882 74.526 170.982 74.292 169.65 73.968L168.984 73.788C167.418 73.41 166.248 72.708 166.248 71.07C166.248 69.396 167.76 68.298 169.866 68.298C171.954 68.298 173.322 69.198 173.538 71.052H171.81C171.54 70.206 170.91 69.738 169.812 69.738C168.66 69.738 168.102 70.206 168.102 70.908C168.102 71.682 168.66 71.898 169.812 72.24L170.82 72.528C172.71 73.068 173.7 73.644 173.7 75.228C173.7 77.046 172.134 78.216 169.974 78.216C167.67 78.216 166.32 77.226 165.942 75.12ZM177.982 65.994V68.55H179.746V69.954H177.982V75.624C177.982 76.542 178.432 76.794 179.134 76.794C179.26 76.794 179.458 76.776 179.584 76.758V78.108C179.314 78.162 179.116 78.18 178.882 78.18C177.208 78.18 176.146 77.622 176.146 75.732V69.954H174.724V68.55H176.146V65.994H177.982ZM181.497 68.55H183.243V69.756C183.549 68.874 184.449 68.316 185.529 68.316C185.763 68.316 185.871 68.334 185.997 68.352V70.008C185.835 69.954 185.565 69.954 185.367 69.954C183.657 69.954 183.333 71.214 183.333 73.104V78H181.515V69.396C181.515 69.126 181.515 68.838 181.497 68.55ZM193.771 68.55H195.751C194.095 72.78 192.277 77.064 190.693 81.24H188.803C189.253 80.178 189.757 79.026 190.171 78L186.553 68.55H188.641L190.387 73.698C190.693 74.616 190.909 75.192 191.143 75.966H191.179C191.467 75.084 191.647 74.544 191.971 73.644L193.771 68.55Z" fill="#2E2E38"/>
<g opacity="0.72" clip-path="url(#clip0_1_167)">
<path d="M49.4973 110.333C49.4973 116.167 41.9988 121.167 41.9988 121.167C41.9988 121.167 34.5002 116.167 34.5002 110.333C34.5002 108.344 35.2903 106.437 36.6965 105.03C38.1028 103.624 40.01 102.833 41.9988 102.833C43.9875 102.833 45.8948 103.624 47.301 105.03C48.7073 106.437 49.4973 108.344 49.4973 110.333Z" stroke="#2E2E38" stroke-width="1.6" stroke-linecap="round" stroke-linejoin="round"/>
<path d="M41.9988 112.833C43.3792 112.833 44.4983 111.714 44.4983 110.333C44.4983 108.952 43.3792 107.833 41.9988 107.833C40.6183 107.833 39.4993 108.952 39.4993 110.333C39.4993 111.714 40.6183 112.833 41.9988 112.833Z" stroke="#2E2E38" stroke-width="1.6" stroke-linecap="round" stroke-linejoin="round"/>
</g>
<path opacity="0.72" d="M61.5621 118.5V105.63H64.6221L66.9081 112.668L67.4481 114.378L67.7361 115.332L68.0061 116.196H68.0241L68.3121 115.296L68.6361 114.288L68.9421 113.334L69.2121 112.542L71.4801 105.63H74.4321V118.5H72.5961V111.858V110.742L72.6141 109.5C72.6321 108.654 72.6501 107.88 72.6501 107.358H72.6321C72.4521 108.006 71.8221 109.932 71.2461 111.714L68.9601 118.5H66.9621L64.2441 110.418C63.8301 109.176 63.5961 108.222 63.3621 107.358H63.3441C63.3621 108.42 63.3801 109.878 63.3801 111.678V118.5H61.5621ZM83.4802 118.5V117.15C82.9942 117.96 82.0582 118.734 80.4742 118.734C78.2602 118.734 77.1982 117.402 77.1982 114.936V109.05H79.0162V114.252C79.0162 116.124 79.6102 117.222 81.1042 117.222C83.0482 117.222 83.3902 115.458 83.3902 113.388V109.05H85.2082V117.798C85.2082 118.032 85.2082 118.266 85.2262 118.5H83.4802ZM89.6175 109.05V110.328C90.1035 109.518 90.9675 108.78 92.5875 108.78C94.0095 108.78 94.9455 109.392 95.4315 110.526C95.9895 109.734 96.8355 108.78 98.6895 108.78C100.939 108.78 102.001 110.256 102.001 112.686V118.5H100.165V113.406C100.165 111.48 99.6075 110.328 98.1135 110.328C96.6375 110.328 95.8275 111.57 95.8275 113.064V118.5H93.9915V113.406C93.9915 111.48 93.4515 110.328 91.9395 110.328C90.4635 110.328 89.6535 111.57 89.6535 113.082V118.5H87.8355V109.788C87.8355 109.554 87.8355 109.302 87.8175 109.05H89.6175ZM104.517 118.5V105.63H106.353V109.32C106.353 109.608 106.353 109.914 106.335 110.256C106.893 109.482 107.901 108.762 109.413 108.762C112.077 108.762 113.823 110.886 113.823 113.748C113.823 116.7 112.023 118.716 109.431 118.716C107.793 118.716 106.785 118.014 106.227 117.168V118.5H104.517ZM109.053 110.292C107.307 110.292 106.245 111.75 106.245 113.766C106.245 115.854 107.271 117.222 109.071 117.222C110.853 117.222 111.861 115.872 111.861 113.766C111.861 111.75 110.835 110.292 109.053 110.292ZM123.595 118.5H121.885C121.831 118.122 121.813 117.906 121.795 117.204C121.075 118.23 120.121 118.68 118.609 118.68C116.629 118.68 115.189 117.708 115.189 115.944C115.189 113.928 117.133 113.244 119.653 112.902C120.283 112.812 120.967 112.74 121.597 112.686C121.597 110.778 120.805 110.238 119.563 110.238C118.195 110.238 117.547 110.868 117.421 112.002H115.639C115.729 109.986 117.349 108.798 119.599 108.798C121.615 108.798 123.361 109.464 123.361 113.154V114.99C123.361 116.52 123.433 117.636 123.595 118.5ZM121.633 114C118.555 114.288 117.151 114.63 117.151 115.926C117.151 116.808 117.871 117.366 119.023 117.366C120.733 117.366 121.615 116.358 121.615 114.504V114.216C121.615 114.126 121.615 114.054 121.633 114ZM125.875 109.05H127.693V118.5H125.875V109.05ZM125.839 107.682V105.63H127.729V107.682H125.839Z" fill="#2E2E38"/>
<g opacity="0.72" clip-path="url(#clip1_1_167)">
<path d="M220.665 107.833H207.332C206.411 107.833 205.665 108.579 205.665 109.499V117.833C205.665 118.753 206.411 119.499 207.332 119.499H220.665C221.586 119.499 222.332 118.753 222.332 117.833V109.499C222.332 108.579 221.586 107.833 220.665 107.833Z" stroke="#2E2E38" stroke-width="1.6" stroke-linecap="round" stroke-linejoin="round"/>
<path d="M217.332 119.499V106.166C217.332 105.724 217.156 105.3 216.844 104.987C216.531 104.675 216.107 104.499 215.665 104.499H212.332C211.89 104.499 211.466 104.675 211.153 104.987C210.841 105.3 210.665 105.724 210.665 106.166V119.499" stroke="#2E2E38" stroke-width="1.6" stroke-linecap="round" stroke-linejoin="round"/>
</g>
<path opacity="0.72" d="M237.168 111.552V111.516C236.322 111.192 235.224 110.346 235.224 108.636C235.224 106.818 236.646 105.378 239.184 105.378C241.722 105.378 243.144 106.818 243.144 108.636C243.144 110.346 242.046 111.192 241.2 111.516V111.552C242.856 112.2 243.684 113.244 243.684 114.99C243.684 117.258 242.01 118.77 239.184 118.77C236.358 118.77 234.666 117.258 234.666 114.972C234.666 113.226 235.566 112.146 237.168 111.552ZM239.184 112.452C237.546 112.452 236.592 113.388 236.592 114.828C236.592 116.196 237.51 117.186 239.184 117.186C240.822 117.186 241.758 116.196 241.758 114.828C241.758 113.388 240.786 112.452 239.184 112.452ZM239.184 107.052C237.87 107.052 237.078 107.79 237.078 108.924C237.078 110.022 237.888 110.796 239.184 110.796C240.48 110.796 241.308 110.04 241.308 108.906C241.308 107.826 240.48 107.052 239.184 107.052ZM245.542 112.722V111.192H250.438V112.722H245.542ZM256.761 118.5V110.346C256.761 109.914 256.743 109.482 256.761 109.032C256.509 109.05 256.257 109.05 256.023 109.05H253.683V107.682C255.897 107.628 256.851 107.07 257.049 105.63H258.633V118.5H256.761ZM267.15 105.378C270.858 105.378 271.704 108.636 271.704 112.092C271.704 115.908 270.75 118.77 267.15 118.77C263.532 118.77 262.614 115.908 262.614 112.092C262.614 108.636 263.46 105.378 267.15 105.378ZM267.15 106.908C265.08 106.908 264.648 109.284 264.648 112.092C264.648 115.116 265.152 117.258 267.15 117.258C269.166 117.258 269.652 115.116 269.652 112.092C269.652 109.266 269.238 106.908 267.15 106.908ZM280.615 118.5V113.514C279.175 110.85 277.753 108.294 276.313 105.63H278.455C279.103 106.854 279.751 108.096 280.651 109.842L281.641 111.714C281.929 111.138 282.199 110.724 284.845 105.63H286.861C285.421 108.294 283.945 110.85 282.487 113.514V118.5H280.615ZM287.187 109.05H288.933V110.256C289.239 109.374 290.139 108.816 291.219 108.816C291.453 108.816 291.561 108.834 291.687 108.852V110.508C291.525 110.454 291.255 110.454 291.057 110.454C289.347 110.454 289.023 111.714 289.023 113.604V118.5H287.205V109.896C287.205 109.626 287.205 109.338 287.187 109.05ZM292.584 115.62H294.384C294.69 116.628 295.356 117.24 296.67 117.24C297.75 117.24 298.524 116.754 298.524 115.908C298.524 115.026 297.624 114.792 296.292 114.468L295.626 114.288C294.06 113.91 292.89 113.208 292.89 111.57C292.89 109.896 294.402 108.798 296.508 108.798C298.596 108.798 299.964 109.698 300.18 111.552H298.452C298.182 110.706 297.552 110.238 296.454 110.238C295.302 110.238 294.744 110.706 294.744 111.408C294.744 112.182 295.302 112.398 296.454 112.74L297.462 113.028C299.352 113.568 300.342 114.144 300.342 115.728C300.342 117.546 298.776 118.716 296.616 118.716C294.312 118.716 292.962 117.726 292.584 115.62Z" fill="#2E2E38"/>
<rect x="32.5" y="154.5" width="143" height="47" rx="11.5" fill="#EBEEF2"/>
<rect x="32.5" y="154.5" width="143" height="47" rx="11.5" stroke="#052761"/>
<path d="M64.352 183.5H62.32C61.168 180.492 58.912 174.14 58.16 172.06H60.032L62.272 178.508C62.672 179.644 62.992 180.556 63.376 181.756H63.408C63.776 180.652 64.176 179.564 64.576 178.412L66.816 172.06H68.592L64.352 183.5ZM69.8555 175.1H71.4715V183.5H69.8555V175.1ZM69.8235 173.884V172.06H71.5035V173.884H69.8235ZM81.4886 179.724H74.9126C74.9606 181.196 75.9526 182.364 77.5526 182.364C78.7046 182.364 79.2646 181.82 79.6966 181.1H81.3126C80.8486 182.62 79.4886 183.708 77.4886 183.708C74.8966 183.708 73.2806 181.964 73.2806 179.34C73.2806 176.716 74.9766 174.86 77.4886 174.86C80.2246 174.86 81.4886 176.94 81.4886 179.196V179.724ZM74.9766 178.444H79.8086C79.6646 177.1 78.8486 176.172 77.4566 176.172C76.1286 176.172 75.1526 177.036 74.9766 178.444ZM82.195 175.1H83.923L85.251 179.836C85.427 180.46 85.571 181.02 85.779 181.852H85.827C86.003 181.036 86.179 180.444 86.371 179.692L87.523 175.1H89.251L90.067 178.348C90.323 179.42 90.579 180.588 90.915 181.852H90.947L91.427 180.06L91.571 179.564L92.851 175.1H94.515L91.843 183.5H89.923C89.491 181.996 88.723 178.876 88.387 177.292H88.339C87.699 180.044 87.011 182.236 86.691 183.5H84.851C83.939 180.764 83.091 177.852 82.195 175.1ZM99.8295 183.5V172.06H102.95C107.222 172.06 109.302 174.092 109.302 177.804C109.302 180.956 107.59 183.5 103.222 183.5H99.8295ZM101.526 173.516V182.076H102.822C105.83 182.076 107.477 180.956 107.477 177.804C107.477 174.972 105.878 173.5 102.982 173.5C102.678 173.5 102.342 173.516 102.038 173.516H101.526ZM118.864 179.724H112.288C112.336 181.196 113.328 182.364 114.928 182.364C116.08 182.364 116.64 181.82 117.072 181.1H118.688C118.224 182.62 116.864 183.708 114.864 183.708C112.272 183.708 110.656 181.964 110.656 179.34C110.656 176.716 112.352 174.86 114.864 174.86C117.6 174.86 118.864 176.94 118.864 179.196V179.724ZM112.352 178.444H117.184C117.04 177.1 116.224 176.172 114.832 176.172C113.504 176.172 112.528 177.036 112.352 178.444ZM122.606 172.828V175.1H124.174V176.348H122.606V181.388C122.606 182.204 123.006 182.428 123.63 182.428C123.742 182.428 123.918 182.412 124.03 182.396V183.596C123.79 183.644 123.614 183.66 123.406 183.66C121.918 183.66 120.974 183.164 120.974 181.484V176.348H119.71V175.1H120.974V172.828H122.606ZM132.626 183.5H131.106C131.058 183.164 131.042 182.972 131.026 182.348C130.386 183.26 129.538 183.66 128.194 183.66C126.434 183.66 125.154 182.796 125.154 181.228C125.154 179.436 126.882 178.828 129.122 178.524C129.682 178.444 130.29 178.38 130.85 178.332C130.85 176.636 130.146 176.156 129.042 176.156C127.826 176.156 127.25 176.716 127.138 177.724H125.554C125.634 175.932 127.074 174.876 129.074 174.876C130.866 174.876 132.418 175.468 132.418 178.748V180.38C132.418 181.74 132.482 182.732 132.626 183.5ZM130.882 179.5C128.146 179.756 126.898 180.06 126.898 181.212C126.898 181.996 127.538 182.492 128.562 182.492C130.082 182.492 130.866 181.596 130.866 179.948V179.692C130.866 179.612 130.866 179.548 130.882 179.5ZM134.652 175.1H136.268V183.5H134.652V175.1ZM134.62 173.884V172.06H136.3V173.884H134.62ZM138.67 183.5V172.06H140.286V183.5H138.67ZM142.044 180.94H143.644C143.916 181.836 144.508 182.38 145.676 182.38C146.636 182.38 147.324 181.948 147.324 181.196C147.324 180.412 146.524 180.204 145.34 179.916L144.748 179.756C143.356 179.42 142.316 178.796 142.316 177.34C142.316 175.852 143.66 174.876 145.532 174.876C147.388 174.876 148.604 175.676 148.796 177.324H147.26C147.02 176.572 146.46 176.156 145.484 176.156C144.46 176.156 143.964 176.572 143.964 177.196C143.964 177.884 144.46 178.076 145.484 178.38L146.38 178.636C148.06 179.116 148.94 179.628 148.94 181.036C148.94 182.652 147.548 183.692 145.628 183.692C143.58 183.692 142.38 182.812 142.044 180.94Z" fill="#052761"/>
<rect x="200" y="154" width="144" height="48" rx="12" fill="#052761"/>
<path d="M232.576 180.252H234.288C234.496 181.468 235.28 182.38 236.928 182.38C238.448 182.38 239.344 181.612 239.344 180.46C239.344 179.212 238.352 178.924 237.024 178.492L236.272 178.252C234.208 177.612 232.928 176.796 232.928 174.972C232.928 173.116 234.528 171.82 236.896 171.82C239.344 171.82 240.672 173.052 240.88 175.02H239.152C238.96 173.868 238.24 173.212 236.848 173.212C235.504 173.212 234.736 173.868 234.736 174.828C234.736 176.012 235.744 176.38 236.992 176.764L237.792 177.004C239.808 177.596 241.12 178.348 241.12 180.252C241.12 182.348 239.392 183.724 236.912 183.724C234.336 183.724 232.72 182.444 232.576 180.252ZM248.437 183.5V182.3C248.005 183.02 247.173 183.708 245.765 183.708C243.797 183.708 242.853 182.524 242.853 180.332V175.1H244.469V179.724C244.469 181.388 244.997 182.364 246.325 182.364C248.053 182.364 248.357 180.796 248.357 178.956V175.1H249.973V182.876C249.973 183.084 249.973 183.292 249.989 183.5H248.437ZM252.309 183.5V172.06H253.941V175.34C253.941 175.596 253.941 175.868 253.925 176.172C254.421 175.484 255.317 174.844 256.661 174.844C259.029 174.844 260.581 176.732 260.581 179.276C260.581 181.9 258.981 183.692 256.677 183.692C255.221 183.692 254.325 183.068 253.829 182.316V183.5H252.309ZM256.341 176.204C254.789 176.204 253.845 177.5 253.845 179.292C253.845 181.148 254.757 182.364 256.357 182.364C257.941 182.364 258.837 181.164 258.837 179.292C258.837 177.5 257.925 176.204 256.341 176.204ZM263.971 175.1V176.236C264.403 175.516 265.171 174.86 266.611 174.86C267.875 174.86 268.707 175.404 269.139 176.412C269.635 175.708 270.387 174.86 272.035 174.86C274.035 174.86 274.979 176.172 274.979 178.332V183.5H273.347V178.972C273.347 177.26 272.851 176.236 271.523 176.236C270.211 176.236 269.491 177.34 269.491 178.668V183.5H267.859V178.972C267.859 177.26 267.379 176.236 266.035 176.236C264.723 176.236 264.003 177.34 264.003 178.684V183.5H262.387V175.756C262.387 175.548 262.387 175.324 262.371 175.1H263.971ZM277.215 175.1H278.831V183.5H277.215V175.1ZM277.183 173.884V172.06H278.863V173.884H277.183ZM283.184 172.828V175.1H284.752V176.348H283.184V181.388C283.184 182.204 283.584 182.428 284.208 182.428C284.32 182.428 284.496 182.412 284.608 182.396V183.596C284.368 183.644 284.192 183.66 283.984 183.66C282.496 183.66 281.552 183.164 281.552 181.484V176.348H280.288V175.1H281.552V172.828H283.184ZM299.028 180.156H300.788C300.004 182.348 298.227 183.724 295.524 183.724C292.196 183.724 289.876 181.308 289.876 177.772C289.876 174.252 292.212 171.836 295.604 171.836C298.276 171.836 300.084 173.148 300.804 175.532H299.076C298.452 174.108 297.38 173.26 295.588 173.26C293.124 173.26 291.7 175.084 291.7 177.756C291.7 180.412 293.124 182.316 295.604 182.316C297.284 182.316 298.388 181.516 299.028 180.156ZM307.633 183.5H305.601C304.449 180.492 302.193 174.14 301.441 172.06H303.313L305.553 178.508C305.953 179.644 306.273 180.556 306.657 181.756H306.689C307.057 180.652 307.457 179.564 307.857 178.412L310.097 172.06H311.873L307.633 183.5Z" fill="white"/>
<defs>
<clipPath id="clip0_1_167">
<rect width="19.996" height="20" fill="white" transform="translate(32 102)"/>
</clipPath>
<clipPath id="clip1_1_167">
<rect width="20" height="20" fill="white" transform="translate(204 102)"/>
</clipPath>
</defs>
</svg>
