<svg width="60" height="60" viewBox="0 0 60 60" fill="none" xmlns="http://www.w3.org/2000/svg">
<g clip-path="url(#clip0_1_523)">
<path d="M0 30V60H30H60V30V0H30H0V30ZM12.7059 26.1913L12.8571 41.4783L20.0672 41.6348C28.1345 41.7913 27.8319 41.5826 25.8655 45.4957L25.1597 46.9565H15.8824H6.55462V28.9565V10.9565H9.57983H12.605L12.7059 26.1913ZM48.1008 28.6957C51.8824 38.4522 54.958 46.5391 54.958 46.6957C54.958 46.8522 53.6471 46.9565 52.0336 46.9565C48.7059 46.9565 49.0588 47.4261 46.2353 39.913L45.0756 36.7826L37.2605 36.6261L29.4454 36.5217L28.7899 38.3478C28.1849 40.1739 28.1345 40.1739 25.1597 40.1739C23.5462 40.1739 22.1849 39.9652 22.1849 39.7043C22.1849 39.2348 32.9616 12.3062 33.5667 11.3149C33.6675 11.1062 35.4958 10.9565 37.563 10.9565H41.2437L48.1008 28.6957Z" fill="white"/>
<path d="M36.605 19.3566C36.2016 20.3479 34.9411 23.3218 33.8319 26.0349C32.6722 28.7479 31.7646 31.0436 31.7646 31.1479C31.7646 31.2523 34.2857 31.3044 37.3109 31.3044C40.3865 31.3044 42.8571 31.2523 42.8571 31.1479C42.8571 30.8349 37.7646 18.0523 37.563 17.7914C37.4117 17.6871 37.0083 18.3653 36.605 19.3566Z" fill="white"/>
</g>
<defs>
<clipPath id="clip0_1_523">
<rect width="60" height="60" rx="4" fill="white"/>
</clipPath>
</defs>
</svg>
