<svg width="230" height="108" viewBox="0 0 230 108" fill="none" xmlns="http://www.w3.org/2000/svg">
<rect x="0.192627" width="229.807" height="108" rx="16" fill="white"/>
<path d="M98.0748 63.7634C96.8753 62.6773 96.02 61.2637 95.6144 59.6972C95.1164 57.9659 94.867 56.1726 94.8737 54.3711C94.8778 52.8397 95.085 51.3156 95.49 49.8387C95.8361 48.4499 96.4947 47.1583 97.4156 46.0626C98.8008 44.4033 100.769 43.3375 102.915 43.0842C104.952 42.7578 107.038 42.9447 108.983 43.6281C111.022 44.4309 112.669 45.9949 113.575 47.9895C114.539 50.0053 115.013 52.2203 114.958 54.4539C114.988 56.0107 114.796 57.5638 114.389 59.0666C114.062 60.225 113.564 61.328 112.911 62.3389C111.745 64.0836 109.955 65.3146 107.909 65.7783C106.131 66.283 104.254 66.3275 102.454 65.9078C100.831 65.5919 99.3193 64.8546 98.0709 63.7699M102.004 49.0074C100.753 50.6448 100.196 52.7074 100.45 54.7518C100.366 56.6268 100.853 58.4832 101.844 60.0766C102.299 60.6109 102.896 61.004 103.567 61.2097C104.368 61.5179 105.25 61.5475 106.07 61.2939C107.024 60.956 107.824 60.2857 108.323 59.4059C109.1 57.9048 109.468 56.2254 109.39 54.5368C109.491 52.9689 109.166 51.4028 108.45 50.0045C107.97 49.1303 107.202 48.4498 106.276 48.0789C105.482 47.799 104.619 47.7841 103.815 48.0361C103.145 48.2071 102.527 48.5382 102.013 49.0009" fill="#1D1E3F"/>
<path d="M122.789 71.1458C122.794 71.5193 122.725 71.8901 122.584 72.236C122.443 72.582 122.234 72.896 121.969 73.1595C121.716 73.4276 121.41 73.6406 121.071 73.7852C120.732 73.9298 120.367 74.0029 119.998 73.9999H117.211V53.1123C117.211 49.1972 118.334 46.5266 120.578 45.1004C122.753 43.6958 125.289 42.9535 127.878 42.9637C129.297 42.9721 130.701 43.2426 132.022 43.7614C133.315 44.2208 134.461 45.017 135.343 46.0677C137.067 48.515 137.932 51.4636 137.804 54.4539C137.948 57.4985 137.083 60.5057 135.343 63.0083C134.627 64.0104 133.678 64.8239 132.578 65.3794C131.479 65.9348 130.261 66.2156 129.029 66.1978C127.785 66.2235 126.551 65.9648 125.421 65.4416C124.305 64.8609 123.391 63.9557 122.799 62.8452L122.789 71.1458ZM132.133 54.7064C132.243 52.943 131.815 51.1877 130.906 49.6729C130.517 49.1019 129.989 48.64 129.371 48.3315C128.753 48.0229 128.067 47.8779 127.377 47.9105C126.701 47.8853 126.029 48.0342 125.427 48.3428C124.825 48.6514 124.312 49.1093 123.937 49.6729C123.054 51.1957 122.653 52.9509 122.789 54.7064C122.667 56.3899 123.099 58.0671 124.019 59.4822C124.407 60.054 124.934 60.5169 125.552 60.8264C126.17 61.1359 126.856 61.2817 127.546 61.2498C128.212 61.2688 128.871 61.1166 129.46 60.8078C130.05 60.499 130.55 60.0438 130.913 59.4861C131.803 58.0578 132.232 56.3905 132.141 54.7103" fill="#1D1E3F"/>
<path d="M145.561 71.1458C145.566 71.5197 145.496 71.8908 145.355 72.2369C145.213 72.5829 145.003 72.8968 144.737 73.1595C144.485 73.4277 144.18 73.6409 143.842 73.7855C143.503 73.9301 143.138 74.0031 142.77 73.9999H139.983V53.1123C139.983 49.1972 141.103 46.5266 143.344 45.1004C145.519 43.6958 148.055 42.9535 150.643 42.9637C152.062 42.9728 153.467 43.2432 154.787 43.7614C156.079 44.2226 157.225 45.0185 158.108 46.0677C159.829 48.5157 160.694 51.4638 160.568 54.4539C160.711 57.4984 159.846 60.5051 158.108 63.0083C157.391 64.0109 156.443 64.8248 155.343 65.3803C154.243 65.9358 153.025 66.2163 151.793 66.1978C150.549 66.2235 149.315 65.9648 148.186 65.4416C147.07 64.8602 146.156 63.9552 145.563 62.8452L145.561 71.1458ZM154.905 54.7064C155.016 52.9424 154.586 51.1867 153.674 49.6729C153.287 49.1019 152.76 48.6398 152.144 48.3312C151.527 48.0226 150.841 47.8777 150.153 47.9105C149.476 47.8852 148.804 48.0339 148.201 48.3425C147.598 48.6511 147.085 49.1091 146.709 49.6729C145.825 51.1954 145.424 52.9508 145.56 54.7064C145.437 56.3897 145.869 58.0669 146.788 59.4822C147.176 60.0537 147.704 60.5162 148.321 60.8257C148.938 61.1352 149.625 61.2812 150.315 61.2498C150.979 61.269 151.637 61.1168 152.226 60.8079C152.814 60.499 153.313 60.0438 153.675 59.4861C154.567 58.0589 154.997 56.391 154.906 54.7103" fill="#1D1E3F"/>
<path d="M178.485 58.8994H182.589C182.118 61.043 180.895 62.9473 179.143 64.2683C177.284 65.6051 175.032 66.2836 172.743 66.1965C171.371 66.267 170.002 66.0238 168.738 65.4852C167.475 64.9466 166.35 64.127 165.451 63.0886C163.699 61.0789 162.823 58.1997 162.825 54.4513C162.646 51.4425 163.547 48.4685 165.366 46.0651C166.266 45.0269 167.391 44.2074 168.656 43.6689C169.92 43.1304 171.29 42.887 172.663 42.9573C174.078 42.8739 175.494 43.1008 176.812 43.622C178.129 44.1432 179.318 44.9461 180.293 45.9745C182.172 48.4483 183.103 51.5133 182.918 54.6144V55.5377C182.93 55.7371 182.901 55.9369 182.832 56.1244H168.652C168.586 57.5158 169.022 58.8847 169.88 59.982C170.27 60.4418 170.763 60.803 171.319 61.0363C171.875 61.2696 172.478 61.3685 173.08 61.3249C173.911 61.3498 174.733 61.1469 175.457 60.7383C175.629 60.6773 175.784 60.5766 175.909 60.4443C176.039 60.3071 176.196 60.1504 176.356 59.982C176.502 59.7106 176.713 59.4799 176.971 59.3112C177.416 59.0053 177.95 58.8576 178.489 58.8917M168.654 52.347H177.015C177.011 51.1337 176.607 49.9556 175.867 48.9943C175.476 48.5906 175.002 48.2765 174.479 48.0735C173.955 47.8705 173.393 47.7835 172.833 47.8185C172.286 47.7991 171.742 47.8937 171.234 48.0961C170.726 48.2985 170.266 48.6044 169.883 48.9943C169.06 49.914 168.62 51.1136 168.654 52.347Z" fill="#1D1E3F"/>
<path d="M197.573 42.8821H197.144C195.624 42.8813 194.11 43.0882 192.645 43.4972C191.256 43.8723 189.958 44.5276 188.832 45.4228C187.641 46.4254 186.714 47.704 186.13 49.1471C185.425 50.9769 185.091 52.9287 185.146 54.8889V61.962H185.168V66.19H188.158C188.553 66.1947 188.945 66.1172 189.308 65.9625C189.672 65.8078 189.999 65.5792 190.269 65.2913C190.553 65.0095 190.777 64.6735 190.928 64.3033C191.079 63.9331 191.154 63.5363 191.148 63.1365V61.962V54.1922C191.027 52.8003 191.457 51.4163 192.346 50.3384C192.846 49.8951 193.43 49.5576 194.063 49.3461C194.696 49.1347 195.366 49.0538 196.032 49.1082H198V42.8924L197.573 42.8821Z" fill="#1D1E3F"/>
<path d="M92.1438 61.9569C91.8611 61.6733 91.5242 61.4495 91.153 61.2991C90.7819 61.1487 90.3843 61.0747 89.9839 61.0815H88.6656V61.0711H80.554L92.6178 47.8626V42.8718H73.9704V44.8013C73.9619 45.1845 74.0332 45.5652 74.1799 45.9192C74.3266 46.2733 74.5455 46.5929 74.8225 46.8577C75.0926 47.126 75.4137 47.3375 75.7669 47.4796C76.1201 47.6218 76.4982 47.6917 76.8789 47.6852H85.5189L73.2854 61.5153V66.1512H93.049V64.122C93.0578 63.7176 92.9816 63.3159 92.8255 62.9427C92.6694 62.5695 92.4367 62.2333 92.1425 61.9556" fill="#1D1E3F"/>
<path d="M60.6284 43.9777L47.3461 57.264L42.1805 62.4295C42.2117 62.1934 42.2272 61.9555 42.2271 61.7173C42.2274 60.9141 42.0539 60.1203 41.7185 59.3905C41.3831 58.6607 40.8938 58.012 40.2841 57.4891C39.6744 56.9661 38.9589 56.5813 38.1865 56.3609C37.4141 56.1406 36.6031 56.0899 35.8093 56.2125L49.1059 42.9185H56.4872C57.4503 43.6451 58.6243 44.0375 59.8307 44.036C60.0964 44.0361 60.3617 44.0166 60.6246 43.9777" fill="#ED763B"/>
<path d="M59.8437 42.9196C60.5623 42.9193 61.2703 42.746 61.9079 42.4146C61.2702 42.7546 60.5586 42.9325 59.8359 42.9325C59.7401 42.9325 59.643 42.9325 59.551 42.9209L59.8437 42.9196Z" fill="#E85739"/>
<path d="M62.9943 41.613C62.9705 41.6425 62.9435 41.6694 62.914 41.6933C62.7879 41.8147 62.6543 41.928 62.5139 42.0326C62.6833 41.9032 62.8429 41.763 62.9943 41.613Z" fill="#E85739"/>
<path d="M64.2998 38.4663C64.2998 38.6181 64.292 38.7698 64.2765 38.9208C64.2691 39.0139 64.2561 39.1065 64.2376 39.198C64.2298 39.2562 64.2182 39.3093 64.2065 39.3637C64.1449 39.6758 64.048 39.9799 63.9178 40.2702C63.8673 40.3777 63.8142 40.4864 63.7559 40.59C63.7209 40.6522 63.6899 40.7195 63.6523 40.7752C63.5797 40.9013 63.4988 41.0225 63.4101 41.1378C63.326 41.2453 63.2405 41.3541 63.1447 41.4577C63.0958 41.5123 63.044 41.5642 62.9893 41.6131C62.8378 41.7631 62.6769 41.9032 62.5076 42.0326L62.4998 42.0404C62.3126 42.1811 62.1143 42.3063 61.9067 42.4146C61.2691 42.746 60.5611 42.9192 59.8425 42.9197H59.546C58.4188 42.8474 57.361 42.3504 56.5859 41.5289C55.8107 40.7074 55.376 39.6225 55.3692 38.493C55.3625 37.3635 55.7843 36.2736 56.5496 35.4429C57.3149 34.6122 58.3667 34.1026 59.4929 34.0168H59.8438C59.9979 34.0168 60.1443 34.0246 60.3023 34.0402C60.7878 34.0923 61.2615 34.2235 61.7047 34.4286C61.7928 34.4714 61.886 34.5141 61.9637 34.5581C62.0932 34.6242 62.2097 34.7006 62.334 34.7809C62.4207 34.8366 62.5041 34.8971 62.584 34.9622C62.5995 34.9777 62.6189 34.9894 62.6345 35.0049C62.7005 35.0554 62.764 35.1085 62.8274 35.1668L62.9815 35.317L63.5241 35.9722L63.6394 36.1574C63.6782 36.2183 63.7093 36.2869 63.743 36.3426C63.7422 36.3451 63.7422 36.3478 63.743 36.3504C63.774 36.4047 63.8012 36.454 63.8271 36.5083C63.8498 36.55 63.8693 36.5932 63.8854 36.6378C63.8961 36.6565 63.9051 36.676 63.9126 36.6961L63.9242 36.735L64.2596 38.0105C64.2752 38.1615 64.2829 38.3132 64.2829 38.465" fill="#00A8E6"/>
<path d="M36.9464 57.2639C36.8497 57.2561 36.7535 57.2522 36.6576 57.2522C35.6458 57.2522 34.6639 57.5959 33.8729 58.227C33.0819 58.8581 32.5288 59.7391 32.3041 60.7258C32.0794 61.7124 32.1965 62.7461 32.6362 63.6575C33.0759 64.5688 33.8122 65.3038 34.7243 65.7419C34.7981 65.7769 34.8706 65.808 34.9444 65.8378C35.0182 65.8675 35.0739 65.8883 35.1374 65.9116L35.3342 65.9802C35.4719 66.0229 35.612 66.0575 35.7538 66.0838C36.0515 66.1491 36.3555 66.1813 36.6602 66.1796C36.7748 66.1803 36.8893 66.1751 37.0034 66.1641C38.1279 66.076 39.1773 65.5654 39.9405 64.735C40.7038 63.9046 41.1243 62.8159 41.1174 61.688C41.1105 60.5601 40.6767 59.4767 39.9034 58.6556C39.13 57.8346 38.0745 57.3369 36.949 57.2626" fill="#ED763B"/>
<path d="M64.2998 38.4663C64.2998 38.6181 64.292 38.7698 64.2765 38.9209C64.2691 39.0139 64.2561 39.1065 64.2376 39.198C64.2299 39.2562 64.2182 39.3093 64.2066 39.3637C64.1449 39.6758 64.048 39.9799 63.9178 40.2702C63.8673 40.3777 63.8142 40.4865 63.7559 40.59C63.721 40.6522 63.6899 40.7195 63.6523 40.7752C63.5797 40.9013 63.4988 41.0225 63.4102 41.1378C63.326 41.2453 63.2405 41.3541 63.1447 41.4577C63.0976 41.5131 63.0474 41.5658 62.9945 41.6157C62.9705 41.6451 62.9436 41.672 62.9142 41.6959C62.7881 41.8173 62.6544 41.9307 62.5141 42.0352L62.5063 42.043C62.3191 42.1837 62.1208 42.3089 61.9132 42.4172C61.2755 42.7573 60.5639 42.9352 59.8413 42.9352C59.7454 42.9352 59.6483 42.9352 59.5564 42.9236C58.4236 42.8598 57.3576 42.3669 56.5752 41.5452C55.7929 40.7234 55.3529 39.6346 55.3448 38.5C55.3368 37.3654 55.7612 36.2704 56.5317 35.4376C57.3023 34.6048 58.3611 34.0968 59.4929 34.0169C59.6069 34.0052 59.7215 33.9996 59.8361 34C60.0917 34.0006 60.3469 34.0227 60.5988 34.0661C60.6571 34.0738 60.7141 34.0855 60.7723 34.0971C60.7806 34.1021 60.7899 34.1048 60.7995 34.1049C60.8539 34.1166 60.9109 34.1321 60.9653 34.1476C61.0844 34.1787 61.201 34.2137 61.3201 34.2551C61.5397 34.3366 61.7527 34.4349 61.9572 34.5491L61.9715 34.5556C62.101 34.6216 62.2175 34.698 62.3418 34.7783C62.4285 34.834 62.5119 34.8945 62.5917 34.9596C62.6073 34.9751 62.6267 34.9868 62.6423 35.0023C62.7083 35.0528 62.7717 35.1059 62.8352 35.1642L62.9893 35.3144C63.1919 35.5139 63.3737 35.7334 63.5319 35.9696L63.6471 36.1548C63.686 36.2157 63.7171 36.2843 63.7507 36.34C63.75 36.3425 63.75 36.3452 63.7507 36.3478C63.7935 36.4242 63.8271 36.5019 63.8621 36.5783L63.8932 36.6327C63.9038 36.6513 63.9129 36.6708 63.9204 36.6909L63.932 36.7298C64.0524 37.0098 64.144 37.3014 64.2053 37.6L64.2286 37.7295C64.2441 37.8227 64.2558 37.9147 64.2674 38.0105C64.2829 38.1615 64.2907 38.3132 64.2907 38.465" fill="white"/>
<path d="M64.2998 38.4663C64.2998 38.6181 64.292 38.7698 64.2765 38.9209C64.2691 39.0139 64.2561 39.1065 64.2376 39.198C64.2299 39.2562 64.2182 39.3093 64.2066 39.3637C64.1449 39.6758 64.048 39.9799 63.9178 40.2702C63.8673 40.3777 63.8142 40.4865 63.7559 40.59C63.721 40.6522 63.6899 40.7195 63.6523 40.7752C63.5797 40.9013 63.4988 41.0225 63.4102 41.1378C63.326 41.2453 63.2405 41.3541 63.1447 41.4577C63.0976 41.5131 63.0474 41.5658 62.9945 41.6157C62.9705 41.6451 62.9436 41.672 62.9142 41.6959C62.7881 41.8173 62.6544 41.9307 62.5141 42.0352L62.5063 42.043C62.3191 42.1837 62.1208 42.3089 61.9132 42.4172C61.2755 42.7573 60.5639 42.9352 59.8413 42.9352C59.7454 42.9352 59.6483 42.9352 59.5564 42.9236C58.4236 42.8598 57.3576 42.3669 56.5752 41.5452C55.7929 40.7234 55.3529 39.6346 55.3448 38.5C55.3368 37.3654 55.7612 36.2704 56.5317 35.4376C57.3023 34.6048 58.3611 34.0968 59.4929 34.0169C59.6069 34.0052 59.7215 33.9996 59.8361 34C60.0917 34.0006 60.3469 34.0227 60.5988 34.0661C60.6571 34.0738 60.7141 34.0855 60.7723 34.0971C60.7806 34.1021 60.7899 34.1048 60.7995 34.1049C60.8539 34.1166 60.9109 34.1321 60.9653 34.1476C61.0844 34.1787 61.201 34.2137 61.3201 34.2551C61.5397 34.3366 61.7527 34.4349 61.9572 34.5491L61.9715 34.5556C62.101 34.6216 62.2175 34.698 62.3418 34.7783C62.4285 34.834 62.5119 34.8945 62.5917 34.9596C62.6073 34.9751 62.6267 34.9868 62.6423 35.0023C62.7083 35.0528 62.7717 35.1059 62.8352 35.1642L62.9893 35.3144C63.1919 35.5139 63.3737 35.7334 63.5319 35.9696L63.6471 36.1548C63.686 36.2157 63.7171 36.2843 63.7507 36.34C63.75 36.3425 63.75 36.3452 63.7507 36.3478C63.7935 36.4242 63.8271 36.5019 63.8621 36.5783L63.8932 36.6327C63.9038 36.6513 63.9129 36.6708 63.9204 36.6909L63.932 36.7298C64.0524 37.0098 64.144 37.3014 64.2053 37.6L64.2286 37.7295C64.2441 37.8227 64.2558 37.9147 64.2674 38.0105C64.2829 38.1615 64.2907 38.3132 64.2907 38.465" fill="#ED763B"/>
<path d="M54.2469 38.4664C54.2477 37.6011 54.451 36.7479 54.8407 35.9753C55.2304 35.2026 55.7956 34.5319 56.4911 34.017H36.7119C35.8556 34.0106 35.0156 34.2516 34.2929 34.711C33.5702 35.1704 32.9956 35.8287 32.638 36.6069C32.3639 37.1899 32.2211 37.8261 32.2197 38.4703V42.9198H56.4911C55.7955 42.404 55.2304 41.7326 54.8407 40.9594C54.451 40.1861 54.2477 39.3323 54.2469 38.4664Z" fill="#00B5EA"/>
<path d="M59.8763 57.2523H58.5683V57.2639H39.9974C40.6893 57.7822 41.2509 58.4544 41.638 59.2274C42.025 60.0004 42.2268 60.8528 42.2273 61.7173C42.2273 61.9555 42.2117 62.1934 42.1807 62.4295C42.0854 63.1668 41.8429 63.8775 41.4676 64.5192C41.0923 65.161 40.5919 65.7208 39.9961 66.1655H64.2998V61.6758C64.2998 60.5025 63.8338 59.3772 63.0043 58.5475C62.1747 57.7177 61.0496 57.2526 59.8763 57.2523Z" fill="#263E91"/>
</svg>
